<svg width="41" height="22" viewBox="0 0 41 22" fill="none" xmlns="http://www.w3.org/2000/svg">
<mask id="mask0_121_20533" style="mask-type:alpha" maskUnits="userSpaceOnUse" x="0" y="0" width="42" height="22">
<path d="M16.955 18.1684C13.194 21.9293 7.16735 22.0435 3.26882 18.511L6.43625 15.3435L12.039 9.7409L13.0924 10.7942L7.73727 16.1494C9.73795 17.0264 12.1569 16.6459 13.7948 15.0082C15.9279 12.8748 15.9279 9.41613 13.7948 7.28282C11.6614 5.14952 8.20267 5.14952 6.06939 7.28282C4.17596 9.17624 3.96308 12.1139 5.43076 14.2422L2.24142 17.4315C-0.955185 13.5301 -0.732662 7.7641 2.90902 4.12237C6.78773 0.243716 13.0763 0.243716 16.955 4.12237C20.8336 8.00114 20.8336 14.2897 16.955 18.1684Z" fill="#FF3CD4"/>
<path d="M31.0804 20.7865C36.3993 20.7865 40.7416 16.6056 41.0003 11.3511H28.5975V12.8409H36.1707C35.376 14.8756 33.3967 16.317 31.0806 16.317C28.0635 16.317 25.6179 13.8714 25.6179 10.8544C25.6179 7.8375 28.0635 5.39184 31.0806 5.39184C33.7582 5.39184 35.986 7.31848 36.453 9.86127H40.9635C40.4651 4.84228 36.2305 0.922363 31.0804 0.922363C25.5952 0.922363 21.1484 5.36902 21.1484 10.8544C21.1484 16.3397 25.5952 20.7865 31.0804 20.7865Z" fill="#FF3CD4"/>
</mask>
<g mask="url(#mask0_121_20533)">
<path d="M-0.628418 0.584717H42.6517V21.386H-0.628418V0.584717Z" fill="black"/>
</g>
</svg>
