<svg width="53" height="26" viewBox="0 0 53 26" fill="none" xmlns="http://www.w3.org/2000/svg">
<mask id="mask0_54_391" style="mask-type:alpha" maskUnits="userSpaceOnUse" x="0" y="0" width="53" height="26">
<path d="M22.0654 22.3106C17.2953 27.0804 9.6517 27.2253 4.70722 22.745L8.72445 18.7277L15.8303 11.622L17.1664 12.9579L10.3745 19.7498C12.912 20.8621 15.9799 20.3796 18.0572 18.3024C20.7626 15.5967 20.7626 11.2101 18.0572 8.50441C15.3515 5.79875 10.9648 5.79875 8.25917 8.50441C5.85774 10.9058 5.58775 14.6317 7.4492 17.3309L3.40418 21.3759C-0.650053 16.4278 -0.367829 9.11482 4.25089 4.49603C9.17022 -0.423237 17.1459 -0.423237 22.0654 4.49603C26.9846 9.41544 26.9846 17.3911 22.0654 22.3106Z" fill="#FF3CD4"/>
<path d="M39.9801 25.6311C46.726 25.6311 52.2333 20.3285 52.5614 13.6642H36.8311V15.5538H46.4361C45.4282 18.1343 42.9179 19.9626 39.9803 19.9626C36.1538 19.9626 33.052 16.8607 33.052 13.0343C33.052 9.20801 36.1538 6.10619 39.9803 6.10619C43.3764 6.10619 46.2018 8.54973 46.7941 11.7747H52.5148C51.8827 5.4092 46.512 0.437592 39.9801 0.437592C33.0233 0.437592 27.3835 6.07726 27.3835 13.0343C27.3835 19.9913 33.0233 25.6311 39.9801 25.6311Z" fill="#FF3CD4"/>
</mask>
<g mask="url(#mask0_54_391)">
<path d="M-0.235413 0.00915527H54.6564V26.3913H-0.235413V0.00915527Z" fill="#FDFDFD"/>
</g>
</svg>
