<svg width="20" height="20" viewBox="0 0 20 20" fill="none" xmlns="http://www.w3.org/2000/svg">
<g opacity="0.5">
<path d="M12.8018 4.34455C15.2022 5.41712 16.875 7.8255 16.875 10.6246C16.875 14.4215 13.797 17.4996 10 17.4996C6.20304 17.4996 3.125 14.4215 3.125 10.6246C3.125 8.78121 3.85049 7.10729 5.03151 5.87276C5.67025 6.76477 6.51707 7.49763 7.50101 8.00041C7.5386 5.68735 8.62331 3.62886 10.3018 2.27832C10.9379 3.13145 11.7816 3.84838 12.8018 4.34455Z" stroke="white" stroke-linecap="round" stroke-linejoin="round"/>
<path d="M10 14.9999C11.7259 14.9999 13.125 13.6008 13.125 11.8749C13.125 10.2888 11.9434 8.97873 10.4124 8.77689C9.57214 9.53067 8.98849 10.5648 8.80859 11.7321C8.15641 11.5727 7.55441 11.2853 7.03068 10.8981C6.92965 11.2055 6.875 11.5338 6.875 11.8749C6.875 13.6008 8.27411 14.9999 10 14.9999Z" stroke="white" stroke-linecap="round" stroke-linejoin="round"/>
</g>
</svg>
