<svg width="21" height="21" viewBox="0 0 21 21" fill="none" xmlns="http://www.w3.org/2000/svg">
<path d="M19.25 7.4375H1.75M1.75 10.9375H4.85334C5.32601 10.9375 5.56234 10.9375 5.79087 10.9782C5.99371 11.0144 6.19159 11.0743 6.38042 11.1567C6.59316 11.2496 6.7898 11.3807 7.18308 11.6429L7.69192 11.9821C8.0852 12.2443 8.28184 12.3754 8.49458 12.4683C8.68341 12.5507 8.88129 12.6106 9.08413 12.6468C9.31266 12.6875 9.54899 12.6875 10.0217 12.6875H10.9783C11.451 12.6875 11.6873 12.6875 11.9159 12.6468C12.1187 12.6106 12.3166 12.5507 12.5054 12.4683C12.7182 12.3754 12.9148 12.2443 13.3081 11.9821L13.8169 11.6429C14.2102 11.3807 14.4068 11.2496 14.6196 11.1567C14.8084 11.0743 15.0063 11.0144 15.2091 10.9782C15.4377 10.9375 15.674 10.9375 16.1467 10.9375H19.25M1.75 6.3L1.75 14.7C1.75 15.6801 1.75 16.1701 1.94074 16.5445C2.10852 16.8738 2.37623 17.1415 2.70552 17.3093C3.07986 17.5 3.56991 17.5 4.55 17.5L16.45 17.5C17.4301 17.5 17.9201 17.5 18.2945 17.3093C18.6238 17.1415 18.8915 16.8738 19.0593 16.5445C19.25 16.1701 19.25 15.6801 19.25 14.7V6.3C19.25 5.31991 19.25 4.82986 19.0593 4.45552C18.8915 4.12623 18.6238 3.85852 18.2945 3.69074C17.9201 3.5 17.4301 3.5 16.45 3.5L4.55 3.5C3.56991 3.5 3.07986 3.5 2.70552 3.69074C2.37623 3.85852 2.10852 4.12623 1.94074 4.45552C1.75 4.82986 1.75 5.31991 1.75 6.3Z" stroke="white" stroke-width="1.75" stroke-linecap="round" stroke-linejoin="round"/>
</svg>
