<svg width="50" height="26" viewBox="0 0 50 26" fill="none" xmlns="http://www.w3.org/2000/svg">
<path d="M40.4805 4.00888L8.30366 10.2367C7.1965 20.4779 15.9154 24.8835 20.4132 25.8061L44.4297 25.1741C45.7764 25.1387 46.9344 24.2098 47.2612 22.9028L49.8222 12.6586C51.2062 4.35487 44.1711 3.43223 40.4805 4.00888Z" fill="black" fill-opacity="0.9"/>
<path d="M17.9914 7.12285L2.07593 9.89075C0.777376 10.1166 0.150913 9.06219 0 8.50676V3.31694C6.36618 1.10262 8.6497 3.20156 9.34168 4.35486C9.89526 1.03338 16.4921 0.0877576 19.3753 0.203087C19.9289 4.35494 18.6834 6.5462 17.9914 7.12285Z" fill="black" fill-opacity="0.9"/>
<circle cx="41.5186" cy="11.2746" r="1.72994" fill="white"/>
</svg>
