<svg width="151" height="150" viewBox="0 0 151 150" fill="none" xmlns="http://www.w3.org/2000/svg">
<g clip-path="url(#clip0_121_20325)">
<rect x="0.5" width="150" height="150" rx="75" fill="#F6EBFF"/>
<path d="M51.7745 63.9975L98.5843 100.317L89.1949 105.989L81.2453 110.806L72.9067 115.838L64.9428 120.657L56.6123 125.695L48.6475 130.507L40.3162 135.538L32.3602 140.362L26.6138 143.832C25.8653 144.289 25.0002 144.519 24.1387 144.491C23.2772 144.463 22.4621 144.178 21.8069 143.675C21.1517 143.172 20.6888 142.477 20.4828 141.686C20.2767 140.895 20.3377 140.048 20.6572 139.262L24.8439 129.124L29.1286 118.769L33.6639 107.891L37.9415 97.538L42.4166 86.7041L46.7013 76.3497L51.1693 65.517L51.7745 63.9975Z" fill="#B65FFF"/>
<path d="M25.0768 145.098C25.745 144.991 26.3903 144.752 26.9709 144.396L98.9384 100.907C99.0373 100.847 99.1211 100.767 99.183 100.672C99.2449 100.577 99.2831 100.47 99.2943 100.361C99.3056 100.252 99.2896 100.144 99.2478 100.045C99.2059 99.9457 99.1394 99.8591 99.0536 99.7921L52.2504 63.4711C52.1641 63.4037 52.061 63.3581 51.9496 63.338C51.8382 63.318 51.7219 63.3241 51.6103 63.3558C51.4987 63.3876 51.3951 63.4441 51.3083 63.5205C51.2214 63.597 51.1538 63.6912 51.1111 63.7953L20.0321 139.021C19.7458 139.708 19.6277 140.441 19.6872 141.16C19.7468 141.879 19.9823 142.566 20.3751 143.164C20.7679 143.762 21.3071 144.256 21.9496 144.606C22.5921 144.956 23.3202 145.152 24.0759 145.179C24.4095 145.186 24.7449 145.158 25.0768 145.098ZM97.3502 100.264L26.2182 143.257C25.5967 143.632 24.8794 143.82 24.1663 143.793C23.4532 143.766 22.7797 143.526 22.2397 143.107C21.6997 142.687 21.32 142.109 21.1536 141.453C20.9871 140.797 21.0421 140.095 21.311 139.446L52.0613 65.1294L97.3502 100.264Z" fill="#252525"/>
<path d="M30.3376 118.564L41.6398 135.543L33.5841 140.419L25.9991 129.029L30.3376 118.564Z" fill="#B65FFF"/>
<path d="M33.6656 141.096C33.7651 141.078 33.8608 141.041 33.9469 140.987L41.9594 136.127C42.0438 136.076 42.1177 136.011 42.1768 135.934C42.2359 135.858 42.2791 135.771 42.3036 135.68C42.3313 135.59 42.34 135.496 42.3291 135.405C42.3183 135.313 42.2881 135.226 42.2404 135.148L30.9501 118.185C30.8792 118.08 30.778 117.998 30.6577 117.948C30.5375 117.897 30.403 117.881 30.2691 117.899C30.1352 117.917 30.0069 117.97 29.8985 118.051C29.79 118.133 29.7057 118.241 29.6548 118.362L25.3206 128.821C25.2812 128.924 25.2672 129.034 25.2799 129.141C25.2926 129.248 25.3315 129.349 25.3935 129.436L32.955 140.808C33.0276 140.918 33.1333 141.004 33.2594 141.055C33.3855 141.106 33.5266 141.12 33.6656 141.096ZM40.6253 135.355L33.832 139.46L26.8175 128.918L30.4994 120.091L40.6253 135.355Z" fill="#252525"/>
<path d="M38.3775 97.2798L57.3672 125.772L49.2785 130.643L34.0332 107.761L38.3775 97.2798Z" fill="#B65FFF"/>
<path d="M49.3553 131.321C49.4552 131.307 49.5519 131.272 49.6382 131.219L57.7192 126.343C57.8039 126.292 57.878 126.227 57.9373 126.15C57.9966 126.073 58.0398 125.987 58.0645 125.896C58.0914 125.806 58.0997 125.713 58.089 125.623C58.0782 125.532 58.0487 125.446 58.0019 125.368L39.0285 96.8894C38.9582 96.7829 38.857 96.699 38.7361 96.6472C38.6153 96.5954 38.4797 96.5778 38.3446 96.5962C38.2096 96.6147 38.0805 96.6685 37.9718 96.7515C37.8631 96.8346 37.779 96.9436 37.7292 97.0664L33.3887 107.543C33.3491 107.646 33.3352 107.756 33.3479 107.863C33.3605 107.97 33.3996 108.071 33.4618 108.159L48.7156 131.027C48.7826 131.127 48.8769 131.207 48.9892 131.258C49.1015 131.31 49.2277 131.331 49.3553 131.321ZM56.3448 125.576L49.5302 129.687L34.8557 107.659L38.5194 98.8144L56.3448 125.576Z" fill="#252525"/>
<path d="M46.4099 75.9951L73.0936 115.989L64.993 120.871L42.0516 86.4852L46.4099 75.9951Z" fill="#B65FFF"/>
<path d="M65.0681 121.549C65.1652 121.533 65.2591 121.498 65.3443 121.448L73.4461 116.566C73.5295 116.515 73.6023 116.45 73.6605 116.373C73.7186 116.296 73.7608 116.21 73.7847 116.12C73.8126 116.029 73.8213 115.935 73.8104 115.844C73.7995 115.752 73.7692 115.664 73.7213 115.586L47.0567 75.5993C46.9825 75.497 46.8789 75.4179 46.7573 75.3707C46.6356 75.3235 46.5007 75.31 46.3673 75.3317C46.2339 75.3534 46.1072 75.4096 46.0012 75.4939C45.8952 75.5782 45.8139 75.6874 45.7664 75.8095L41.4114 86.2958C41.3718 86.3998 41.3578 86.5097 41.3705 86.6168C41.3832 86.7238 41.4223 86.8251 41.4847 86.9124L64.3323 121.263C64.4071 121.377 64.517 121.465 64.648 121.515C64.779 121.566 64.9252 121.578 65.0681 121.549ZM72.0694 115.799L65.2353 119.908L42.8792 86.3989L46.5765 77.5282L72.0694 115.799Z" fill="#252525"/>
<path d="M50.895 63.7829L70.8091 79.1994L88.816 106.237L80.7598 111.107L50.2527 65.3241L50.895 63.7829Z" fill="#B65FFF"/>
<path d="M80.8487 111.784C80.9483 111.766 81.0442 111.729 81.1304 111.675L89.1836 106.813C89.2687 106.761 89.343 106.695 89.4021 106.617C89.4612 106.539 89.5038 106.451 89.5275 106.359C89.5543 106.27 89.5626 106.177 89.5519 106.087C89.5412 105.996 89.5117 105.91 89.465 105.833L71.4656 78.7957C71.4283 78.7371 71.3798 78.686 71.3226 78.6448L51.4169 63.2255C51.3295 63.1574 51.225 63.1112 51.1122 63.0909C50.9994 63.0707 50.8816 63.0768 50.7685 63.1089C50.6555 63.141 50.5506 63.1981 50.4626 63.2754C50.3746 63.3527 50.3061 63.448 50.2629 63.5532L49.6281 65.0928C49.5886 65.1965 49.5747 65.3062 49.5873 65.4131C49.6 65.52 49.639 65.6211 49.7011 65.7082L80.1652 111.484C80.2345 111.592 80.3353 111.677 80.4561 111.73C80.577 111.783 80.713 111.802 80.8487 111.784ZM87.8107 106.04L81.0153 110.146L51.0861 65.2173L51.207 64.9327L70.2601 79.6825L87.8107 106.04Z" fill="#252525"/>
<path d="M113.06 72.8202C107.751 73.6885 102.964 70.3091 102.367 65.2722C101.771 60.2354 105.592 55.4483 110.901 54.58C116.21 53.7118 120.997 57.0911 121.593 62.128C122.189 67.1649 118.369 71.952 113.06 72.8202Z" fill="#B65FFF"/>
<path d="M113.188 73.489C115.9 73.0444 118.385 71.609 120.109 69.4907C121.833 67.3724 122.66 64.7398 122.411 62.1577C122.162 59.5755 120.857 57.2493 118.777 55.678C116.697 54.1068 114.008 53.4155 111.285 53.7525C108.562 54.0895 106.022 55.4279 104.211 57.4808C102.401 59.5336 101.462 62.1373 101.598 64.7335C101.733 67.3297 102.932 69.7117 104.936 71.3685C106.941 73.0254 109.592 73.8252 112.32 73.5964C112.58 73.5815 112.867 73.5415 113.188 73.489ZM110.993 55.2479C111.243 55.2071 111.485 55.1674 111.706 55.1312C113.997 54.8469 116.26 55.4278 118.01 56.7493C119.76 58.0708 120.858 60.0276 121.067 62.1998C121.276 64.372 120.581 66.5865 119.13 68.3682C117.68 70.15 115.589 71.3569 113.307 71.7301C111.025 72.1033 108.733 71.613 106.924 70.3645C105.115 69.1159 103.932 67.2085 103.629 65.0516C103.326 62.8947 103.927 60.6601 105.304 58.8272C106.681 56.9944 108.723 55.7094 110.993 55.2479Z" fill="#252525"/>
<path d="M88.0748 83.5149C85.5878 83.9216 83.3453 82.3386 83.0661 79.9791C82.7869 77.6196 84.5767 75.3771 87.0637 74.9703C89.5508 74.5636 91.7932 76.1467 92.0725 78.5062C92.3517 80.8657 90.5619 83.1082 88.0748 83.5149Z" fill="#B65FFF"/>
<path d="M88.1621 84.1911C89.4701 83.9747 90.6745 83.3005 91.5369 82.3019C92.3994 81.3034 92.8572 80.0531 92.8199 78.7984C92.7884 77.8093 92.4501 76.8686 91.8477 76.0952C91.2452 75.3219 90.4057 74.7506 89.4353 74.4535C88.4648 74.1565 87.407 74.147 86.3954 74.4262C85.3839 74.7055 84.4641 75.2611 83.7522 76.0226C83.0403 76.7842 82.5684 77.7176 82.396 78.7048C82.2237 79.6921 82.3586 80.6889 82.7838 81.5693C83.209 82.4497 83.9054 83.1741 84.7849 83.6511C85.6644 84.128 86.6876 84.336 87.7252 84.2487L88.1621 84.1911ZM91.3798 78.9234C91.4018 79.6423 91.1996 80.3638 90.799 80.9968C90.3983 81.6297 89.8171 82.1456 89.1288 82.4792C88.4406 82.8128 87.6763 82.9492 86.9325 82.871C86.1888 82.7928 85.499 82.5036 84.9505 82.04C84.402 81.5764 84.0193 80.9591 83.851 80.2664C83.6826 79.5737 83.7361 78.8365 84.0047 78.1482C84.2733 77.4599 84.7449 76.8513 85.3598 76.3995C85.9748 75.9477 86.7055 75.6729 87.4595 75.6099C88.47 75.5255 89.4506 75.8271 90.1857 76.4485C90.9208 77.0698 91.3503 77.96 91.3798 78.9234Z" fill="#252525"/>
<path d="M86.135 49.1606L86.4708 54.7632L91.5088 57.389C91.6688 57.4732 91.7984 57.6 91.8828 57.7551C91.9672 57.9102 92.0032 58.0874 91.9866 58.2667C91.97 58.4459 91.9015 58.6201 91.7888 58.7696C91.6761 58.919 91.5238 59.0378 91.3491 59.1124L85.8596 61.459L84.5096 67.013C84.4662 67.1891 84.373 67.3531 84.2404 67.4864C84.1077 67.6198 83.9409 67.7172 83.7588 67.7678C83.5766 67.8184 83.3863 67.8201 83.2092 67.7727C83.0321 67.7254 82.8752 67.6309 82.7563 67.4998L79.0295 63.3555L73.16 64.1498C72.9755 64.169 72.7921 64.1394 72.6299 64.0643C72.4676 63.9892 72.3328 63.8715 72.2402 63.7241C72.1476 63.5767 72.1009 63.4054 72.105 63.2288C72.1092 63.0522 72.1642 62.8773 72.2639 62.7233L75.4494 57.8075L73.1709 52.7502C73.1 52.5892 73.0786 52.4097 73.1093 52.2319C73.1399 52.0542 73.2213 51.8852 73.3443 51.744C73.4673 51.6028 73.6271 51.4949 73.8057 51.4324C73.9843 51.37 74.1747 51.3555 74.3554 51.3905L80.0537 52.5285L84.5201 48.6037C84.6609 48.4913 84.8282 48.4151 85.005 48.3829C85.1817 48.3506 85.3615 48.3635 85.5258 48.4202C85.6902 48.4769 85.8333 48.5753 85.9403 48.7054C86.0474 48.8355 86.1146 48.9926 86.135 49.1606Z" fill="#B65FFF"/>
<path d="M83.7229 68.4801L83.9227 68.4475C84.2388 68.3628 84.5287 68.1955 84.7588 67.9649C84.989 67.7344 85.1499 67.45 85.2231 67.1446L86.4919 61.9486L91.6259 59.729C91.9259 59.6031 92.1874 59.4003 92.3798 59.144C92.5723 58.8878 92.6877 58.5888 92.7128 58.2817C92.7416 57.9749 92.6803 57.6716 92.5358 57.4062C92.3912 57.1407 92.1693 56.9239 91.8951 56.7802L87.1814 54.315L86.8666 49.0743C86.8479 48.769 86.7398 48.4799 86.5546 48.2395C86.3694 47.9992 86.1145 47.8172 85.8186 47.7141C85.5227 47.6111 85.1977 47.5911 84.8802 47.6564C84.5628 47.7217 84.2655 47.8697 84.022 48.0836L79.8453 51.7543L74.5148 50.7147C74.204 50.6541 73.8765 50.679 73.5694 50.7866C73.2623 50.8942 72.9877 51.0801 72.7766 51.3235C72.5656 51.5669 72.4266 51.8579 72.3753 52.1638C72.3239 52.4696 72.3623 52.7781 72.4861 53.0543L74.6176 57.791L71.6449 62.417C71.4684 62.6838 71.3721 62.9888 71.3673 63.2962C71.3624 63.6037 71.4493 63.901 71.6176 64.1533C71.7831 64.407 72.0223 64.6071 72.3081 64.731C72.5939 64.855 72.9151 64.8978 73.2353 64.8547L78.7254 64.1087L82.2015 67.9769C82.3833 68.1784 82.6179 68.33 82.8837 68.418C83.1494 68.5059 83.438 68.5272 83.7229 68.4801ZM85.4174 49.2423L85.7523 54.8385C85.7588 54.9497 85.7938 55.0561 85.8541 55.1485C85.9145 55.2408 85.9985 55.3163 86.0987 55.3683L91.1298 57.9955C91.1763 58.0177 91.2142 58.0529 91.2388 58.0967C91.2634 58.1405 91.2735 58.191 91.2681 58.242C91.2637 58.2935 91.2443 58.3437 91.2121 58.3868C91.1799 58.4299 91.1362 58.4641 91.086 58.4856L85.597 60.8391C85.4892 60.886 85.3934 60.9564 85.3177 61.0445C85.242 61.1326 85.1887 61.2357 85.1623 61.3449L83.8114 66.8925C83.8004 66.9433 83.7742 66.9907 83.736 67.0289C83.6979 67.067 83.6494 67.0942 83.5968 67.107C83.5448 67.122 83.4903 67.1227 83.4397 67.109C83.3891 67.0952 83.3445 67.0676 83.3112 67.0295L79.5843 62.885C79.5102 62.8041 79.4157 62.7428 79.3087 62.7062C79.2018 62.6696 79.0857 62.6589 78.9703 62.6749L73.1004 63.4692C73.0472 63.4764 72.9938 63.4693 72.9463 63.4488C72.8988 63.4282 72.8589 63.3951 72.8313 63.353C72.8037 63.311 72.7893 63.2617 72.7898 63.2107C72.7904 63.1597 72.8058 63.109 72.8343 63.0643L76.0207 58.1549C76.084 58.0569 76.122 57.947 76.1316 57.8348C76.1411 57.7226 76.1219 57.6115 76.0755 57.5111L73.7969 52.4536C73.7751 52.4082 73.7685 52.3567 73.7781 52.3059C73.7876 52.2551 73.8129 52.2073 73.8505 52.1688C73.8795 52.1175 73.9262 52.0766 73.9821 52.0535C74.038 52.0305 74.0995 52.0268 74.1556 52.043L79.8541 53.1811C79.9664 53.2022 80.0839 53.1967 80.1966 53.1651C80.3094 53.1334 80.4141 53.0765 80.5018 52.9993L84.9684 49.0742C85.008 49.0369 85.0574 49.0107 85.1106 48.9988C85.1639 48.9869 85.2187 48.9899 85.2684 49.0073C85.3181 49.0247 85.3607 49.0558 85.3909 49.0969C85.4211 49.138 85.4378 49.1872 85.4388 49.2388L85.4174 49.2423Z" fill="#252525"/>
<path d="M101.415 22.6391L104.092 27.4997L109.959 27.92C110.145 27.9329 110.32 27.9956 110.465 28.1008C110.61 28.206 110.718 28.3496 110.779 28.5155C110.839 28.6813 110.849 28.8628 110.807 29.0394C110.765 29.216 110.673 29.3808 110.541 29.5151L106.379 33.7349L107.455 39.2023C107.488 39.3759 107.47 39.5579 107.402 39.7279C107.334 39.8978 107.218 40.049 107.069 40.1645C106.919 40.2799 106.742 40.355 106.556 40.3814C106.37 40.4078 106.182 40.3844 106.015 40.3138L100.76 38.0618L95.5857 41.0397C95.4218 41.1354 95.2357 41.1865 95.0487 41.1872C94.8617 41.1879 94.6814 41.1382 94.5284 41.0438C94.3754 40.9493 94.2558 40.814 94.1833 40.6532C94.1109 40.4924 94.0885 40.3126 94.1186 40.1344L94.9793 34.5021L90.7031 30.8758C90.5667 30.7612 90.469 30.6104 90.4212 30.4404C90.3734 30.2705 90.3773 30.0882 90.4326 29.9145C90.4878 29.7408 90.5922 29.5825 90.7337 29.4578C90.8753 29.3331 91.0483 29.247 91.2331 29.2092L97.0519 27.9886L99.5804 22.7459C99.6593 22.5723 99.7877 22.4213 99.9503 22.3111C100.113 22.201 100.302 22.1364 100.496 22.1251C100.69 22.1138 100.88 22.1563 101.043 22.2475C101.206 22.3387 101.335 22.4747 101.415 22.6391Z" fill="#B65FFF"/>
<path d="M106.66 41.0299C106.895 40.9911 107.122 40.9069 107.326 40.7826C107.531 40.6583 107.709 40.4964 107.85 40.3072C107.99 40.1179 108.09 39.9052 108.144 39.6823C108.197 39.4595 108.202 39.2312 108.159 39.0117L107.146 33.8929L111.042 29.9444C111.268 29.7144 111.427 29.4322 111.499 29.1296C111.571 28.8271 111.555 28.5161 111.452 28.2318C111.349 27.9475 111.163 27.7011 110.915 27.5205C110.667 27.3398 110.367 27.232 110.049 27.2092L104.559 26.8377L102.05 22.2946C101.904 22.0301 101.68 21.8145 101.405 21.6721C101.13 21.5296 100.814 21.466 100.493 21.4884C100.172 21.5107 99.8591 21.6182 99.5888 21.7986C99.3184 21.9791 99.1018 22.2253 98.9633 22.5096L96.5962 27.3947L91.1532 28.5332C90.8358 28.599 90.5388 28.7477 90.2961 28.9626C90.0535 29.1774 89.8748 29.4497 89.7806 29.7484C89.6863 30.0471 89.6802 30.3602 89.763 30.652C89.8458 30.9439 90.0141 31.2028 90.2488 31.3992L94.2503 34.7945L93.4162 40.036C93.3666 40.3414 93.4065 40.6491 93.5314 40.9242C93.6562 41.1994 93.8611 41.4311 94.123 41.5934C94.3848 41.7557 94.6932 41.842 95.0134 41.8426C95.3336 41.8433 95.6528 41.7582 95.9353 41.5971L100.775 38.8049L105.693 40.912C105.991 41.0431 106.327 41.0841 106.66 41.0299ZM100.503 22.8581C100.555 22.8531 100.607 22.8629 100.653 22.8861C100.698 22.9093 100.735 22.9449 100.758 22.9888L103.442 27.8482C103.494 27.9441 103.571 28.025 103.665 28.0841C103.76 28.1431 103.869 28.1785 103.984 28.1873L109.851 28.6076C109.905 28.6092 109.955 28.6263 109.996 28.6564C110.037 28.6866 110.067 28.7286 110.082 28.7768C110.101 28.8241 110.104 28.8765 110.092 28.9274C110.08 28.9783 110.053 29.0257 110.014 29.0638L105.852 33.2767C105.769 33.3608 105.708 33.4617 105.674 33.5707C105.64 33.6797 105.634 33.7934 105.656 33.9019L106.733 39.3692C106.746 39.4179 106.743 39.4703 106.724 39.5191C106.705 39.5679 106.671 39.6108 106.627 39.6418C106.586 39.6778 106.536 39.7018 106.482 39.7105C106.429 39.7193 106.374 39.7124 106.327 39.6908L101.072 37.4388C100.969 37.395 100.854 37.3764 100.739 37.3845C100.623 37.3925 100.51 37.4271 100.408 37.4852L95.2339 40.4631C95.1872 40.4925 95.1332 40.5084 95.0787 40.5087C95.0243 40.509 94.9721 40.4937 94.9286 40.4647C94.8861 40.4373 94.8528 40.399 94.8321 40.3539C94.8114 40.3087 94.8041 40.2583 94.811 40.208L95.7144 34.5688C95.7326 34.4579 95.7224 34.346 95.6849 34.2427C95.6473 34.1395 95.5835 34.048 95.4988 33.9763L91.2299 30.3488C91.1907 30.3162 91.1625 30.2733 91.1484 30.2247C91.1343 30.1762 91.1349 30.1241 91.1502 30.0742C91.1655 30.0244 91.1948 29.9788 91.2348 29.9426C91.2749 29.9065 91.324 29.8811 91.3768 29.8695L97.1963 28.6557C97.3108 28.6315 97.4191 28.5815 97.5119 28.5098C97.6048 28.4382 97.6794 28.3471 97.7293 28.2443L100.258 23.0016C100.281 22.9634 100.314 22.9306 100.353 22.9063C100.392 22.8819 100.436 22.8665 100.481 22.8616L100.503 22.8581Z" fill="#252525"/>
<path d="M120.486 93.9563C120.898 93.8902 121.303 93.7771 121.691 93.6197C122.535 93.2957 123.292 92.7867 123.893 92.1382C124.495 91.4896 124.923 90.7218 125.14 89.9032C125.689 87.4199 124.313 85.1701 122.387 83.8194C124.008 82.9584 125.824 82.51 127.641 82.5223C127.981 82.5343 128.318 82.5712 128.649 82.6326C128.571 82.7897 128.502 82.9505 128.443 83.1142C127.684 85.1094 128.209 87.7719 130.396 88.7443C130.994 89.0369 131.701 89.1078 132.381 88.9436C132.693 88.8529 132.984 88.7023 133.235 88.5019C133.486 88.3015 133.691 88.0559 133.836 87.7817C134.059 87.3337 134.186 86.8541 134.21 86.3709C134.233 85.8877 134.153 85.4107 133.973 84.9678C133.364 83.5697 132.21 82.4588 130.73 81.8465C131.515 80.9323 132.455 80.1402 133.508 79.5039C136.172 77.8377 139.174 76.7356 142.286 76.281C145.398 75.8263 148.539 76.0311 151.471 76.8798C151.645 76.9257 151.835 76.9057 152.001 76.8241C152.167 76.7424 152.297 76.6054 152.362 76.4423C152.427 76.2791 152.422 76.1025 152.349 75.9501C152.275 75.7976 152.139 75.6812 151.969 75.6256C148.833 74.7196 145.473 74.5017 142.144 74.9885C138.816 75.4753 135.605 76.654 132.755 78.4354C131.447 79.223 130.301 80.23 129.38 81.401C128.859 81.2773 128.323 81.2056 127.779 81.1868C125.423 81.1788 123.077 81.8252 121.04 83.0434L120.912 82.9912C118.648 82.031 115.882 81.8898 112.191 82.5028C107.901 83.1848 101.912 84.9684 97.6888 89.3227C97.625 89.3888 97.575 89.4651 97.5418 89.5475C97.5086 89.6298 97.4928 89.7164 97.4953 89.8024C97.4978 89.8885 97.5185 89.9722 97.5563 90.0488C97.5942 90.1255 97.6483 90.1935 97.7157 90.2491C97.7831 90.3047 97.8625 90.3468 97.9492 90.3729C98.0359 90.3989 98.1283 90.4085 98.2211 90.4011C98.3139 90.3937 98.4053 90.3695 98.4901 90.3297C98.5749 90.29 98.6515 90.2355 98.7153 90.1694C102.645 86.1125 108.306 84.4602 112.356 83.7967C115.411 83.3112 117.704 83.336 119.592 83.9666C118.108 84.9203 116.928 86.2382 116.196 87.7606C115.402 89.5897 115.594 92.107 117.503 93.3811C118.352 93.9382 119.426 94.1451 120.486 93.9563ZM121.02 84.5845C122.793 85.6228 124.25 87.5958 123.756 89.7138C123.593 90.3101 123.276 90.8683 122.834 91.3392C122.392 91.81 121.838 92.1791 121.222 92.4137C120.763 92.6219 120.261 92.72 119.765 92.6983C119.268 92.6767 118.794 92.5361 118.386 92.2901C117.054 91.3996 116.945 89.5029 117.521 88.177C118.279 86.6921 119.502 85.4365 121.02 84.5845ZM129.97 83.0167C131.19 83.4826 132.146 84.3737 132.643 85.5093C132.871 86.0615 132.852 86.6873 132.591 87.2535C132.538 87.3598 132.462 87.4556 132.368 87.5343C132.274 87.6131 132.164 87.673 132.045 87.7099C131.71 87.7686 131.371 87.7201 131.083 87.5724C129.569 86.8891 129.228 84.9168 129.77 83.4842C129.827 83.3299 129.894 83.174 129.97 83.0167Z" fill="#252525"/>
<path d="M136.678 43.6106C135.687 41.9477 134.223 40.6024 132.444 39.7202C130.665 38.8381 128.638 38.4525 126.583 38.6052L124.057 43.6293C124.057 43.6293 131.001 43.795 133.193 48.2683L136.678 43.6106Z" fill="#B65FFF"/>
<path d="M133.274 48.9448C133.371 48.9295 133.466 48.8955 133.551 48.8449C133.636 48.7943 133.71 48.7281 133.769 48.6505L137.254 43.9915C137.332 43.8884 137.38 43.7689 137.393 43.6455C137.407 43.5221 137.385 43.3995 137.331 43.2906C137.217 43.0614 134.361 37.5802 126.589 37.9211C126.449 37.9237 126.31 37.9655 126.19 38.0414C126.07 38.1173 125.974 38.224 125.914 38.3482L123.387 43.3737C123.336 43.4767 123.312 43.5885 123.317 43.6994C123.321 43.8102 123.353 43.9168 123.411 44.01C123.468 44.1035 123.549 44.181 123.647 44.2358C123.744 44.2906 123.856 44.3211 123.971 44.3246C124.036 44.3141 130.531 44.5398 132.522 48.5997C132.574 48.706 132.654 48.7958 132.756 48.8601C132.858 48.9244 132.978 48.9609 133.103 48.966C133.16 48.9678 133.218 48.9606 133.274 48.9448ZM135.836 43.6037L133.285 47.0086C131.176 44.0351 127.027 43.2124 125.131 43.0198L127.018 39.2693C128.793 39.1983 130.533 39.5572 132.074 40.3126C133.616 41.068 134.909 42.1954 135.835 43.5902L135.836 43.6037Z" fill="#252525"/>
<path d="M82.2739 19.7973L74.1389 22.7061L73.0735 19.4928L81.2085 16.584L82.2739 19.7973Z" fill="#B65FFF"/>
<path d="M74.1839 23.3635L74.3184 23.3416L82.5374 20.4462C82.6272 20.4141 82.7105 20.3656 82.7824 20.3037C82.8543 20.2418 82.9134 20.1676 82.9562 20.0854C83.043 19.9214 83.0598 19.7351 83.0028 19.5674L81.8977 16.3438C81.8411 16.1762 81.7156 16.0408 81.5486 15.9672C81.3816 15.8936 81.1868 15.8877 81.0069 15.951L72.7886 18.853C72.6089 18.9168 72.4589 19.0445 72.3715 19.208C72.2842 19.3714 72.2665 19.5574 72.3225 19.7252L73.4275 22.9488C73.4794 23.0928 73.5828 23.2126 73.7205 23.2881C73.8582 23.3636 74.0218 23.3902 74.1839 23.3635ZM81.4318 19.4008L74.5706 21.8236L73.9217 19.8871L80.783 17.4644L81.4318 19.4008Z" fill="#252525"/>
<path d="M57.7736 61.0297C57.9654 60.9979 58.1407 60.8965 58.2617 60.7474C61.0121 57.366 62.9022 53.4541 63.7728 49.3414C64.5017 46.2336 64.378 43.0469 63.4137 40.0923C65.0722 36.6578 65.6301 32.8897 65.0147 29.278C64.2504 25.1101 62.4934 21.2147 59.8744 17.8812C59.7663 17.7349 59.5989 17.6385 59.4088 17.6128C59.2187 17.5872 59.0212 17.6345 58.8592 17.7444C58.7785 17.7997 58.7092 17.8689 58.6553 17.9481C58.6014 18.0272 58.5639 18.1148 58.545 18.2058C58.5261 18.2968 58.5261 18.3893 58.5451 18.4782C58.5641 18.567 58.6016 18.6504 58.6555 18.7235C61.1477 21.895 62.823 25.5993 63.5579 29.5632C64.0445 32.4815 63.7238 35.5138 62.6266 38.3696C60.742 35.0727 57.3098 32.9867 53.699 33.0252C52.6838 33.0098 51.6643 33.2073 50.7131 33.6037C49.7619 34.0002 48.9023 34.5858 48.1957 35.3188C47.1112 36.6498 46.5463 38.2789 46.6043 39.908C46.567 41.2113 46.8766 42.4832 47.5045 43.6063C48.1324 44.7294 49.0583 45.6676 50.1969 46.3343C54.1818 48.4919 59.7406 45.7267 62.378 41.8441C62.8983 44.2252 62.883 46.7123 62.3332 49.1472C61.5104 53.043 59.7208 56.7489 57.1157 59.9519C56.9948 60.1028 56.9392 60.2895 56.9609 60.4711C56.9826 60.6527 57.0798 60.8146 57.2314 60.9214C57.3857 61.025 57.5806 61.0639 57.7736 61.0297ZM61.7915 40.0539C61.5888 40.4161 61.3706 40.7739 61.1719 41.1074C58.9076 44.432 54.2732 46.8231 50.9788 45.0792C50.061 44.5133 49.3187 43.7323 48.8179 42.8059C48.3171 41.8795 48.0734 40.8364 48.1084 39.7694C48.0336 38.4895 48.4514 37.1997 49.2849 36.1375C49.843 35.5683 50.5204 35.1165 51.2682 34.8148C52.016 34.513 52.8154 34.3688 53.6088 34.3925C56.7727 34.3563 59.9341 36.36 61.4794 39.3755C61.5911 39.6238 61.6994 39.8445 61.794 40.0745L61.7915 40.0539Z" fill="#252525"/>
<path d="M136.573 59.6849C136.666 59.6693 136.757 59.6363 136.839 59.5878C136.921 59.5393 136.993 59.4763 137.052 59.4025C137.575 58.7422 138.322 58.2719 139.153 58.0791C139.34 58.0361 139.505 57.9253 139.612 57.7711C139.72 57.6168 139.761 57.4318 139.727 57.2566C139.693 57.0814 139.586 56.9305 139.43 56.837C139.274 56.7436 139.082 56.7152 138.895 56.7582C137.726 57.0292 136.672 57.684 135.924 58.6046C135.865 58.6775 135.822 58.7601 135.795 58.8474C135.769 58.9347 135.761 59.0251 135.771 59.1133C135.782 59.2016 135.811 59.286 135.856 59.3616C135.902 59.4372 135.964 59.5026 136.037 59.5539C136.11 59.6097 136.196 59.6501 136.288 59.6726C136.38 59.6951 136.477 59.6993 136.573 59.6849Z" fill="#6D6D6D"/>
<path d="M118.98 31.6168C119.101 31.5977 119.216 31.5504 119.316 31.4792C119.416 31.408 119.498 31.3152 119.553 31.2091C120.527 29.3437 121.207 27.365 121.57 25.3402C121.619 25.1543 121.623 24.9624 121.581 24.78C121.539 24.5976 121.452 24.4297 121.326 24.2898C121.176 24.1464 120.976 24.0585 120.759 24.0405C120.542 24.0226 120.321 24.0756 120.131 24.191C119.956 24.2877 119.819 24.4372 119.741 24.6141C119.664 24.791 119.652 24.9844 119.707 25.1614C119.76 25.3326 119.883 25.4731 120.049 25.5528C119.696 27.3103 119.086 29.0258 118.236 30.648C118.192 30.7317 118.165 30.822 118.157 30.9136C118.149 31.0052 118.16 31.0963 118.189 31.1818C118.219 31.2673 118.266 31.3453 118.328 31.4115C118.391 31.4778 118.467 31.5308 118.552 31.5676C118.684 31.6253 118.833 31.6424 118.98 31.6168Z" fill="#6D6D6D"/>
<path d="M78.1385 43.1054C78.3324 43.0886 78.5159 42.9993 78.6486 42.8572C78.7813 42.7151 78.8524 42.5318 78.8462 42.3477C78.84 42.1635 78.757 41.9935 78.6155 41.8752C78.474 41.7568 78.2856 41.6997 78.0917 41.7165C77.7446 41.7063 77.4083 41.625 77.1054 41.478C76.8025 41.331 76.5401 41.1218 76.336 40.8645C76.1298 40.6321 75.9821 40.3565 75.9032 40.057C75.8242 39.7575 75.8159 39.4414 75.8789 39.1305L75.8708 39.062C76.2836 39.4202 76.7647 39.7012 77.2915 39.8919C77.6437 40.0333 78.0258 40.1054 78.416 40.1041C78.8062 40.1028 79.1968 40.0282 79.5656 39.8844C80.0024 39.7067 80.371 39.3954 80.6105 39.002C80.8499 38.6087 80.9457 38.157 80.8821 37.7218C80.8098 37.4248 80.6703 37.1498 80.473 36.9157C80.2756 36.6816 80.0252 36.4938 79.7385 36.365C79.2561 36.1434 78.7196 36.0349 78.1713 36.0479C77.6229 36.0609 77.0777 36.1951 76.5787 36.44C76.3622 36.5439 76.1542 36.6642 75.9566 36.7997C75.8799 36.6516 75.8113 36.5092 75.7483 36.3519C75.3753 35.2403 75.1556 34.0795 75.0943 32.8975C75.0727 32.7158 74.9757 32.554 74.8245 32.4477C74.6734 32.3414 74.4805 32.2993 74.2883 32.3306C74.0962 32.3619 73.9204 32.4641 73.7998 32.6147C73.6791 32.7653 73.6235 32.952 73.6451 33.1336C73.7085 34.4403 73.9601 35.7219 74.3929 36.9428C74.5258 37.2791 74.6878 37.603 74.8773 37.9113C74.6716 38.2285 74.5227 38.574 74.4372 38.9326C74.3262 39.4423 74.3327 39.9624 74.4565 40.4563C74.5802 40.9501 74.8181 41.4055 75.1533 41.7903C75.486 42.2023 75.9118 42.5361 76.402 42.7694C76.8922 43.0026 77.4355 43.1299 77.9952 43.1427L78.1385 43.1054ZM77.8531 37.4682C78.2498 37.3955 78.6529 37.4475 79.0008 37.6164C79.2105 37.6978 79.3728 37.8571 79.4523 38.0595C79.4751 38.2513 79.2853 38.5196 79.0326 38.6306C78.6456 38.7618 78.2293 38.7497 77.8689 38.5968C77.456 38.4415 77.0843 38.2078 76.7753 37.9092C76.8979 37.8244 77.0274 37.7495 77.1624 37.6855C77.3819 37.581 77.6147 37.5077 77.8531 37.4682Z" fill="#6D6D6D"/>
<path d="M93.588 18.0263C93.7386 18.0025 93.8805 17.9361 93.9948 17.836C94.109 17.736 94.1899 17.6071 94.2268 17.4667C94.5648 16.1601 94.4265 14.8098 93.8349 13.6386C93.7533 13.4749 93.6042 13.3522 93.4202 13.2976C93.2362 13.243 93.0324 13.2609 92.8536 13.3473C92.7642 13.3903 92.6838 13.4491 92.6169 13.5204C92.55 13.5916 92.498 13.6738 92.4639 13.7623C92.4298 13.8508 92.4143 13.9437 92.4183 14.0357C92.4223 14.1278 92.4457 14.2171 92.4871 14.2984C92.9362 15.1907 93.0436 16.2177 92.7919 17.2134C92.7457 17.3951 92.7766 17.5824 92.8779 17.7345C92.9792 17.8866 93.1426 17.9912 93.3325 18.0253C93.4161 18.0396 93.5025 18.04 93.588 18.0263Z" fill="#6D6D6D"/>
</g>
<defs>
<clipPath id="clip0_121_20325">
<rect x="0.5" width="150" height="150" rx="75" fill="white"/>
</clipPath>
</defs>
</svg>
