<svg width="332" height="248" viewBox="0 0 332 248" fill="none" xmlns="http://www.w3.org/2000/svg">
<rect width="332" height="248" rx="10" fill="white"/>
<path d="M46 21L46 239" stroke="black" stroke-opacity="0.1" stroke-dasharray="7 7"/>
<path d="M106 21L106 239" stroke="black" stroke-opacity="0.1" stroke-dasharray="7 7"/>
<path d="M166 21L166 239" stroke="black" stroke-opacity="0.1" stroke-dasharray="7 7"/>
<path d="M226 21L226 239" stroke="black" stroke-opacity="0.1" stroke-dasharray="7 7"/>
<path d="M286 21L286 239" stroke="black" stroke-opacity="0.1" stroke-dasharray="7 7"/>
<path d="M45.5 159L104.272 166.771C105.34 166.913 106.402 166.47 107.054 165.612L164.829 89.5418C165.542 88.6032 166.738 88.1689 167.887 88.4318L225 101.5" stroke="url(#paint0_linear_118_58)" stroke-width="3" stroke-linecap="round"/>
<path d="M226 101L323.861 52.5" stroke="url(#paint1_linear_118_58)" stroke-width="3" stroke-linecap="round"/>
<path d="M166 89.5C166 93.1 166 180 166 223" stroke="url(#paint2_linear_118_58)" stroke-width="3"/>
<circle cx="166" cy="89" r="4.5" fill="white" stroke="#10B981"/>
<g filter="url(#filter0_d_118_58)">
<rect x="63" y="21" width="95" height="65" rx="4" fill="white" shape-rendering="crispEdges"/>
<rect x="63.5" y="21.5" width="94" height="64" rx="3.5" stroke="black" stroke-opacity="0.1" shape-rendering="crispEdges"/>
<path d="M81.584 44.76V37.352H83.152V44.76H81.584ZM78.848 41.816V40.312H85.856V41.816H78.848ZM89.2618 47V37.32L89.5658 37.512C89.4164 37.832 89.1818 38.136 88.8618 38.424C88.5418 38.7013 88.1684 38.9413 87.7418 39.144C87.3151 39.3467 86.8564 39.4907 86.3658 39.576V37.576C86.7924 37.512 87.2244 37.3733 87.6618 37.16C88.0991 36.9467 88.4938 36.696 88.8458 36.408C89.1978 36.1093 89.4484 35.8 89.5978 35.48H91.2938V47H89.2618ZM92.7769 47V45.352C93.8649 44.456 94.7715 43.6827 95.4969 43.032C96.2329 42.3707 96.8195 41.7893 97.2569 41.288C97.6942 40.7867 98.0035 40.328 98.1849 39.912C98.3769 39.4853 98.4729 39.0693 98.4729 38.664C98.4729 38.1307 98.3235 37.7147 98.0249 37.416C97.7262 37.1173 97.3102 36.968 96.7769 36.968C96.2222 36.968 95.7689 37.1333 95.4169 37.464C95.0649 37.784 94.8515 38.2373 94.7769 38.824H92.6649C92.7822 37.7467 93.2142 36.8933 93.9609 36.264C94.7075 35.6347 95.6782 35.32 96.8729 35.32C98.0569 35.32 98.9849 35.6293 99.6569 36.248C100.34 36.856 100.681 37.704 100.681 38.792C100.681 39.336 100.585 39.864 100.393 40.376C100.212 40.8773 99.9022 41.4053 99.4649 41.96C99.0382 42.504 98.4622 43.1067 97.7369 43.768C97.0222 44.4187 96.1262 45.16 95.0489 45.992L94.5529 45.352H100.889V47H92.7769ZM107.096 47V43.96L107.192 43.64V37.064L107.992 37.416L103.256 43.768L102.344 43.016H110.472V44.664H101.448V43.08L107.16 35.48H109.224V47H107.096ZM118.689 47.16C117.686 47.16 116.945 46.9253 116.465 46.456C115.996 45.976 115.761 45.2613 115.761 44.312V36.984L117.793 36.232V44.36C117.793 44.7547 117.9 45.048 118.113 45.24C118.326 45.432 118.662 45.528 119.121 45.528C119.302 45.528 119.462 45.5173 119.601 45.496C119.75 45.464 119.889 45.4267 120.017 45.384V46.952C119.889 47.016 119.708 47.064 119.473 47.096C119.238 47.1387 118.977 47.16 118.689 47.16ZM114.193 40.424V38.84H120.017V40.424H114.193ZM121.478 47V38.84H123.494V47H121.478ZM121.382 37.496V35.272H123.574V37.496H121.382ZM130.291 47.16C129.512 47.16 128.877 46.9787 128.387 46.616C127.907 46.2427 127.608 45.7307 127.491 45.08L127.651 45.064V50.28H125.635V38.84H127.603V40.68L127.443 40.648C127.592 40.04 127.933 39.56 128.467 39.208C129 38.856 129.651 38.68 130.419 38.68C131.144 38.68 131.773 38.856 132.307 39.208C132.851 39.5493 133.272 40.0347 133.571 40.664C133.869 41.2933 134.019 42.0347 134.019 42.888C134.019 43.752 133.864 44.504 133.555 45.144C133.245 45.784 132.813 46.28 132.259 46.632C131.704 46.984 131.048 47.16 130.291 47.16ZM129.779 45.496C130.429 45.496 130.947 45.272 131.331 44.824C131.715 44.3653 131.907 43.7253 131.907 42.904C131.907 42.0827 131.709 41.448 131.315 41C130.931 40.552 130.413 40.328 129.763 40.328C129.123 40.328 128.605 40.5573 128.211 41.016C127.816 41.464 127.619 42.0987 127.619 42.92C127.619 43.7413 127.816 44.376 128.211 44.824C128.605 45.272 129.128 45.496 129.779 45.496ZM138.723 47.16C137.593 47.16 136.691 46.9253 136.019 46.456C135.347 45.976 134.979 45.3147 134.915 44.472H136.755C136.809 44.888 137.006 45.2027 137.347 45.416C137.689 45.6293 138.147 45.736 138.723 45.736C139.246 45.736 139.635 45.656 139.891 45.496C140.158 45.3253 140.291 45.0853 140.291 44.776C140.291 44.552 140.217 44.3707 140.067 44.232C139.918 44.0827 139.635 43.96 139.219 43.864L137.907 43.56C137.011 43.368 136.345 43.0693 135.907 42.664C135.481 42.248 135.267 41.7307 135.267 41.112C135.267 40.3547 135.555 39.7627 136.131 39.336C136.718 38.8987 137.523 38.68 138.547 38.68C139.561 38.68 140.371 38.8987 140.979 39.336C141.598 39.7627 141.939 40.3547 142.003 41.112H140.163C140.11 40.7813 139.939 40.5307 139.651 40.36C139.374 40.1893 138.99 40.104 138.499 40.104C138.041 40.104 137.694 40.1787 137.459 40.328C137.225 40.4667 137.107 40.6747 137.107 40.952C137.107 41.1653 137.198 41.3467 137.379 41.496C137.561 41.6347 137.865 41.7573 138.291 41.864L139.699 42.184C140.499 42.3653 141.102 42.68 141.507 43.128C141.923 43.576 142.131 44.104 142.131 44.712C142.131 45.4907 141.833 46.0933 141.235 46.52C140.638 46.9467 139.801 47.16 138.723 47.16Z" fill="black"/>
<path d="M84.948 60.864V58.72H86.004V60.864H84.948ZM86.004 71.68V73.744H84.948V71.68H86.004ZM85.78 72.144C84.436 72.144 83.364 71.8133 82.564 71.152C81.7747 70.4907 81.3107 69.5467 81.172 68.32H82.452C82.5693 69.2053 82.9053 69.872 83.46 70.32C84.0147 70.768 84.7827 70.992 85.764 70.992C86.596 70.992 87.22 70.8373 87.636 70.528C88.0627 70.208 88.276 69.744 88.276 69.136C88.276 68.6133 88.132 68.1973 87.844 67.888C87.556 67.5787 87.108 67.3227 86.5 67.12L84.564 66.448C83.5827 66.1067 82.8573 65.696 82.388 65.216C81.9187 64.7253 81.684 64.1067 81.684 63.36C81.684 62.7413 81.8387 62.208 82.148 61.76C82.4573 61.3013 82.8947 60.944 83.46 60.688C84.0253 60.432 84.6813 60.304 85.428 60.304C86.58 60.304 87.5027 60.608 88.196 61.216C88.8893 61.8133 89.2893 62.6667 89.396 63.776H88.116C87.9773 62.976 87.6893 62.3893 87.252 62.016C86.8253 61.6427 86.2067 61.456 85.396 61.456C84.628 61.456 84.0307 61.6107 83.604 61.92C83.1773 62.2293 82.964 62.6667 82.964 63.232C82.964 63.712 83.1133 64.096 83.412 64.384C83.7107 64.672 84.1747 64.9227 84.804 65.136L86.868 65.856C87.764 66.1653 88.436 66.5867 88.884 67.12C89.332 67.6427 89.556 68.3093 89.556 69.12C89.556 70.08 89.2253 70.8267 88.564 71.36C87.9133 71.8827 86.9853 72.144 85.78 72.144ZM90.8744 72V70.88C92.0264 69.9307 92.9864 69.0987 93.7544 68.384C94.533 67.6693 95.1517 67.0347 95.6104 66.48C96.0797 65.9253 96.4104 65.4187 96.6024 64.96C96.805 64.4907 96.9064 64.032 96.9064 63.584C96.9064 62.9227 96.709 62.4053 96.3144 62.032C95.9197 61.6587 95.3757 61.472 94.6824 61.472C93.9677 61.472 93.3917 61.6747 92.9544 62.08C92.517 62.4853 92.2504 63.0667 92.1544 63.824H90.7784C90.885 62.7787 91.285 61.936 91.9784 61.296C92.6824 60.6453 93.6157 60.32 94.7784 60.32C95.8557 60.32 96.7144 60.608 97.3544 61.184C97.9944 61.76 98.3144 62.5493 98.3144 63.552C98.3144 64.096 98.2077 64.64 97.9944 65.184C97.7917 65.728 97.4504 66.2987 96.9704 66.896C96.501 67.4933 95.877 68.1547 95.0984 68.88C94.3304 69.5947 93.3757 70.4053 92.2344 71.312L91.9304 70.848H98.5064V72H90.8744ZM99.9504 72V70.352H101.598V72H99.9504ZM104.663 72V61.792L104.999 61.872C104.871 62.16 104.625 62.448 104.263 62.736C103.9 63.024 103.479 63.2747 102.999 63.488C102.529 63.7013 102.044 63.8453 101.543 63.92V62.688C102.044 62.6027 102.524 62.4533 102.983 62.24C103.441 62.0267 103.847 61.7707 104.199 61.472C104.561 61.1627 104.828 60.832 104.999 60.48H105.943V72H104.663ZM108.593 72V60.16H109.873V72H108.593ZM113.921 72L109.585 67.76L113.761 63.84H115.521L110.833 68.128L110.913 67.376L115.681 72H113.921ZM122.742 72L119.366 63.84H120.742L123.558 71.136H123.046L125.846 63.84H127.158L123.782 72H122.742ZM131.922 72.16C131.122 72.16 130.418 71.9733 129.81 71.6C129.202 71.2267 128.727 70.72 128.386 70.08C128.055 69.4293 127.89 68.6987 127.89 67.888C127.89 67.0667 128.061 66.3413 128.402 65.712C128.743 65.0827 129.213 64.5867 129.81 64.224C130.418 63.8613 131.122 63.68 131.922 63.68C132.733 63.68 133.437 63.8613 134.034 64.224C134.642 64.5867 135.111 65.0827 135.442 65.712C135.783 66.3413 135.954 67.0667 135.954 67.888C135.954 68.6987 135.783 69.4293 135.442 70.08C135.111 70.72 134.642 71.2267 134.034 71.6C133.437 71.9733 132.733 72.16 131.922 72.16ZM131.922 71.072C132.477 71.072 132.957 70.9387 133.362 70.672C133.767 70.3947 134.082 70.016 134.306 69.536C134.53 69.056 134.642 68.5013 134.642 67.872C134.642 66.9333 134.391 66.1813 133.89 65.616C133.399 65.0507 132.743 64.768 131.922 64.768C131.111 64.768 130.455 65.0507 129.954 65.616C129.453 66.1813 129.202 66.9333 129.202 67.872C129.202 68.5013 129.314 69.056 129.538 69.536C129.762 70.016 130.077 70.3947 130.482 70.672C130.898 70.9387 131.378 71.072 131.922 71.072ZM137.874 72V60.48H139.154V72H137.874Z" fill="#10B981"/>
</g>
<defs>
<filter id="filter0_d_118_58" x="55" y="14" width="111" height="81" filterUnits="userSpaceOnUse" color-interpolation-filters="sRGB">
<feFlood flood-opacity="0" result="BackgroundImageFix"/>
<feColorMatrix in="SourceAlpha" type="matrix" values="0 0 0 0 0 0 0 0 0 0 0 0 0 0 0 0 0 0 127 0" result="hardAlpha"/>
<feOffset dy="1"/>
<feGaussianBlur stdDeviation="4"/>
<feComposite in2="hardAlpha" operator="out"/>
<feColorMatrix type="matrix" values="0 0 0 0 0 0 0 0 0 0 0 0 0 0 0 0 0 0 0.33 0"/>
<feBlend mode="normal" in2="BackgroundImageFix" result="effect1_dropShadow_118_58"/>
<feBlend mode="normal" in="SourceGraphic" in2="effect1_dropShadow_118_58" result="shape"/>
</filter>
<linearGradient id="paint0_linear_118_58" x1="46" y1="153.5" x2="109" y2="188" gradientUnits="userSpaceOnUse">
<stop stop-color="#10B981" stop-opacity="0"/>
<stop offset="1" stop-color="#10B981"/>
</linearGradient>
<linearGradient id="paint1_linear_118_58" x1="255" y1="91" x2="309.5" y2="59.5" gradientUnits="userSpaceOnUse">
<stop stop-color="#10B981"/>
<stop offset="1" stop-color="white" stop-opacity="0"/>
</linearGradient>
<linearGradient id="paint2_linear_118_58" x1="166.5" y1="89.5" x2="166.5" y2="223" gradientUnits="userSpaceOnUse">
<stop stop-color="#10B981"/>
<stop offset="1" stop-color="white" stop-opacity="0"/>
</linearGradient>
</defs>
</svg>
