<svg width="250" height="169" viewBox="0 0 250 169" fill="none" xmlns="http://www.w3.org/2000/svg">
<path d="M1.34607 17.0934V4.90507H6.50917C7.38944 4.90507 8.13993 5.05179 8.76063 5.34521C9.38133 5.63863 9.85532 6.05619 10.1826 6.5979C10.5212 7.1396 10.6904 7.78287 10.6904 8.52771C10.6904 9.28384 10.5212 9.93839 10.1826 10.4914C9.85532 11.0331 9.37568 11.4563 8.7437 11.761C8.123 12.0657 7.37816 12.2181 6.50917 12.2181H2.71726V10.7284H6.42453C7.2258 10.7284 7.83522 10.5365 8.25278 10.1528C8.68163 9.76911 8.89605 9.23305 8.89605 8.54464C8.89605 7.84494 8.68727 7.30888 8.26971 6.93646C7.85215 6.56404 7.23709 6.37783 6.42453 6.37783H3.14046V17.0934H1.34607ZM15.461 17.2627C14.5808 17.2627 13.8077 17.0708 13.1419 16.6871C12.476 16.2921 11.9569 15.7561 11.5845 15.0789C11.212 14.3905 11.0258 13.6118 11.0258 12.7428C11.0258 11.8626 11.212 11.0895 11.5845 10.4237C11.9682 9.75783 12.4873 9.2387 13.1419 8.86627C13.8077 8.48257 14.5808 8.29072 15.461 8.29072C16.3526 8.29072 17.1313 8.48257 17.7971 8.86627C18.463 9.2387 18.9764 9.75783 19.3376 10.4237C19.71 11.0895 19.8962 11.8626 19.8962 12.7428C19.8962 13.6118 19.71 14.3905 19.3376 15.0789C18.9764 15.7561 18.463 16.2921 17.7971 16.6871C17.1313 17.0708 16.3526 17.2627 15.461 17.2627ZM15.461 15.8238C15.9914 15.8238 16.4485 15.694 16.8322 15.4344C17.2272 15.1749 17.5375 14.8137 17.7633 14.351C17.989 13.8883 18.1018 13.3466 18.1018 12.7259C18.1018 11.8005 17.8535 11.0726 17.357 10.5422C16.8717 10.0005 16.2397 9.72961 15.461 9.72961C14.6936 9.72961 14.0616 10.0005 13.5651 10.5422C13.0798 11.0839 12.8372 11.8118 12.8372 12.7259C12.8372 13.3466 12.9444 13.8883 13.1588 14.351C13.3845 14.8137 13.6948 15.1749 14.0898 15.4344C14.4961 15.694 14.9532 15.8238 15.461 15.8238ZM21.3659 17.0934V4.90507H23.1265V17.0934H21.3659ZM25.2594 17.0934V4.90507H27.0199V17.0934H25.2594ZM29.119 17.0934V14.9943H31.2012V17.0934H29.119ZM29.119 10.9654V8.86627H31.2012V10.9654H29.119ZM39.7146 17.0934V6.37783H35.6011V4.90507H45.6226V6.37783H41.509V17.0934H39.7146ZM48.9557 17.2627C48.0755 17.2627 47.3024 17.0708 46.6366 16.6871C45.9707 16.2921 45.4516 15.7561 45.0792 15.0789C44.7067 14.3905 44.5205 13.6118 44.5205 12.7428C44.5205 11.8626 44.7067 11.0895 45.0792 10.4237C45.4629 9.75783 45.982 9.2387 46.6366 8.86627C47.3024 8.48257 48.0755 8.29072 48.9557 8.29072C49.8473 8.29072 50.626 8.48257 51.2918 8.86627C51.9577 9.2387 52.4712 9.75783 52.8323 10.4237C53.2047 11.0895 53.3909 11.8626 53.3909 12.7428C53.3909 13.6118 53.2047 14.3905 52.8323 15.0789C52.4712 15.7561 51.9577 16.2921 51.2918 16.6871C50.626 17.0708 49.8473 17.2627 48.9557 17.2627ZM48.9557 15.8238C49.4861 15.8238 49.9432 15.694 50.3269 15.4344C50.7219 15.1749 51.0323 14.8137 51.258 14.351C51.4837 13.8883 51.5965 13.3466 51.5965 12.7259C51.5965 11.8005 51.3482 11.0726 50.8517 10.5422C50.3664 10.0005 49.7344 9.72961 48.9557 9.72961C48.1883 9.72961 47.5563 10.0005 47.0598 10.5422C46.5745 11.0839 46.3319 11.8118 46.3319 12.7259C46.3319 13.3466 46.4391 13.8883 46.6535 14.351C46.8792 14.8137 47.1896 15.1749 47.5845 15.4344C47.9908 15.694 48.4479 15.8238 48.9557 15.8238ZM54.8606 17.0934V4.68501H56.6212V17.0934H54.8606ZM60.4639 17.0934L56.2149 12.6074L60.3284 8.46H62.546L57.8739 12.9968L57.9585 12.2011L62.7153 17.0934H60.4639ZM66.9418 17.2627C66.0728 17.2627 65.3054 17.0708 64.6396 16.6871C63.985 16.3034 63.4715 15.773 63.0991 15.0959C62.7267 14.4187 62.5405 13.64 62.5405 12.7598C62.5405 11.8682 62.7211 11.0895 63.0822 10.4237C63.4546 9.74654 63.9737 9.22177 64.6396 8.84935C65.3054 8.47693 66.0672 8.29072 66.9249 8.29072C67.76 8.29072 68.4823 8.47128 69.0917 8.83242C69.7124 9.18227 70.1864 9.67319 70.5137 10.3052C70.8522 10.9372 71.0215 11.6876 71.0215 12.5566C71.0215 12.692 71.0159 12.8218 71.0046 12.946C71.0046 13.0588 70.9933 13.1773 70.9707 13.3015H63.7255V11.9811H69.735L69.2948 12.5058C69.2948 11.5804 69.0861 10.8751 68.6685 10.3898C68.2509 9.90454 67.6697 9.6619 66.9249 9.6619C66.1236 9.6619 65.486 9.93839 65.012 10.4914C64.5493 11.0331 64.3179 11.7892 64.3179 12.7598C64.3179 13.7416 64.5493 14.509 65.012 15.062C65.486 15.615 66.1406 15.8915 66.9757 15.8915C67.4835 15.8915 67.9237 15.7899 68.2961 15.5868C68.6685 15.3723 68.945 15.062 69.1256 14.6557H70.7845C70.5024 15.4683 70.0228 16.1059 69.3456 16.5686C68.6798 17.0313 67.8785 17.2627 66.9418 17.2627ZM72.4838 17.0934V8.46H74.1597V10.4914H74.2444V17.0934H72.4838ZM78.6118 17.0934V11.5409C78.6118 10.9428 78.4595 10.497 78.1548 10.2036C77.8613 9.91018 77.4212 9.76347 76.8344 9.76347C76.3265 9.76347 75.8751 9.87632 75.4801 10.102C75.0964 10.3277 74.7917 10.6381 74.566 11.0331C74.3516 11.4281 74.2444 11.8964 74.2444 12.4381L74.0243 10.3729C74.3064 9.72961 74.7409 9.22177 75.3278 8.84935C75.9146 8.47693 76.5974 8.29072 77.3761 8.29072C78.3015 8.29072 79.0294 8.55028 79.5598 9.06941C80.0902 9.58854 80.3554 10.277 80.3554 11.1347V17.0934H78.6118ZM85.4121 17.0934V8.46H87.088V10.4914H87.1726V17.0934H85.4121ZM91.5401 17.0934V11.5409C91.5401 10.9428 91.3877 10.497 91.083 10.2036C90.7896 9.91018 90.3495 9.76347 89.7626 9.76347C89.2548 9.76347 88.8034 9.87632 88.4084 10.102C88.0247 10.3277 87.72 10.6381 87.4942 11.0331C87.2798 11.4281 87.1726 11.8964 87.1726 12.4381L86.9525 10.3729C87.2347 9.72961 87.6692 9.22177 88.256 8.84935C88.8429 8.47693 89.5256 8.29072 90.3043 8.29072C91.2297 8.29072 91.9576 8.55028 92.4881 9.06941C93.0185 9.58854 93.2837 10.277 93.2837 11.1347V17.0934H91.5401ZM100.59 17.0934C100.533 16.879 100.494 16.642 100.471 16.3824C100.46 16.1228 100.454 15.8068 100.454 15.4344H100.37V11.3209C100.37 10.7679 100.229 10.356 99.9464 10.0851C99.6756 9.80297 99.2411 9.6619 98.6429 9.6619C98.0674 9.6619 97.6047 9.77476 97.2548 10.0005C96.9163 10.2262 96.7188 10.5478 96.6623 10.9654H94.9864C95.0654 10.1528 95.4322 9.5039 96.0868 9.01863C96.7413 8.53335 97.616 8.29072 98.7106 8.29072C99.8392 8.29072 100.686 8.55592 101.25 9.08634C101.814 9.60547 102.096 10.3729 102.096 11.3886V15.4344C102.096 15.694 102.113 15.9592 102.147 16.23C102.181 16.5009 102.232 16.7887 102.299 17.0934H100.59ZM97.6103 17.2627C96.73 17.2627 96.0303 17.0482 95.5112 16.6194C94.9921 16.1793 94.7325 15.5868 94.7325 14.8419C94.7325 14.0745 95.0034 13.4707 95.5451 13.0306C96.0981 12.5792 96.888 12.2745 97.915 12.1165L100.759 11.6594V12.8952L98.1859 13.3015C97.6103 13.3917 97.1758 13.5441 96.8824 13.7585C96.6003 13.973 96.4592 14.2833 96.4592 14.6896C96.4592 15.0846 96.589 15.3836 96.8485 15.5868C97.1194 15.7786 97.5087 15.8746 98.0166 15.8746C98.6937 15.8746 99.2523 15.7109 99.6925 15.3836C100.144 15.0564 100.37 14.6444 100.37 14.1479L100.59 15.4006C100.387 15.9987 100.025 16.4614 99.5063 16.7887C98.9871 17.1047 98.3552 17.2627 97.6103 17.2627ZM104.143 17.0934V8.46H105.819V10.4914H105.903V17.0934H104.143ZM109.966 17.0934V11.4563C109.966 10.8694 109.831 10.4406 109.56 10.1697C109.289 9.8989 108.9 9.76347 108.392 9.76347C107.918 9.76347 107.489 9.87632 107.105 10.102C106.733 10.3165 106.439 10.6212 106.225 11.0162C106.011 11.3999 105.903 11.8569 105.903 12.3873L105.683 10.3729C105.965 9.72961 106.389 9.22177 106.953 8.84935C107.529 8.47693 108.172 8.29072 108.883 8.29072C109.74 8.29072 110.423 8.539 110.931 9.03556C111.45 9.53212 111.71 10.1867 111.71 10.9992V17.0934H109.966ZM115.789 17.0934V11.4563C115.789 10.8694 115.648 10.4406 115.366 10.1697C115.095 9.8989 114.706 9.76347 114.198 9.76347C113.736 9.76347 113.312 9.87632 112.929 10.102C112.556 10.3165 112.257 10.6212 112.031 11.0162C111.817 11.3999 111.71 11.8569 111.71 12.3873L111.354 10.3729C111.648 9.72961 112.088 9.22177 112.675 8.84935C113.273 8.47693 113.939 8.29072 114.672 8.29072C115.541 8.29072 116.235 8.54464 116.754 9.05248C117.274 9.54905 117.533 10.2149 117.533 11.05V17.0934H115.789ZM123.283 17.2627C122.414 17.2627 121.647 17.0708 120.981 16.6871C120.326 16.3034 119.813 15.773 119.44 15.0959C119.068 14.4187 118.882 13.64 118.882 12.7598C118.882 11.8682 119.062 11.0895 119.423 10.4237C119.796 9.74654 120.315 9.22177 120.981 8.84935C121.647 8.47693 122.408 8.29072 123.266 8.29072C124.101 8.29072 124.823 8.47128 125.433 8.83242C126.054 9.18227 126.528 9.67319 126.855 10.3052C127.193 10.9372 127.363 11.6876 127.363 12.5566C127.363 12.692 127.357 12.8218 127.346 12.946C127.346 13.0588 127.334 13.1773 127.312 13.3015H120.067V11.9811H126.076L125.636 12.5058C125.636 11.5804 125.427 10.8751 125.01 10.3898C124.592 9.90454 124.011 9.6619 123.266 9.6619C122.465 9.6619 121.827 9.93839 121.353 10.4914C120.89 11.0331 120.659 11.7892 120.659 12.7598C120.659 13.7416 120.89 14.509 121.353 15.062C121.827 15.615 122.482 15.8915 123.317 15.8915C123.825 15.8915 124.265 15.7899 124.637 15.5868C125.01 15.3723 125.286 15.062 125.467 14.6557H127.126C126.844 15.4683 126.364 16.1059 125.687 16.5686C125.021 17.0313 124.22 17.2627 123.283 17.2627Z" fill="black" fill-opacity="0.6"/>
<circle cx="206.548" cy="10.5934" r="2.97015" fill="#FF5E5E"/>
<path d="M219.681 17.0934V4.90507H221.475V17.0934H219.681ZM220.561 17.0934V15.6206H227.603V17.0934H220.561ZM228.831 17.0934V8.46H230.592V17.0934H228.831ZM228.746 6.76718V4.78658H230.693V6.76718H228.746ZM235.064 17.0934L231.543 8.46H233.422L236.3 16.2978H235.47L238.314 8.46H240.125L236.621 17.0934H235.064ZM244.723 17.2627C243.854 17.2627 243.087 17.0708 242.421 16.6871C241.766 16.3034 241.253 15.773 240.88 15.0959C240.508 14.4187 240.322 13.64 240.322 12.7598C240.322 11.8682 240.502 11.0895 240.863 10.4237C241.236 9.74654 241.755 9.22177 242.421 8.84935C243.087 8.47693 243.848 8.29072 244.706 8.29072C245.541 8.29072 246.264 8.47128 246.873 8.83242C247.494 9.18227 247.968 9.67319 248.295 10.3052C248.633 10.9372 248.803 11.6876 248.803 12.5566C248.803 12.692 248.797 12.8218 248.786 12.946C248.786 13.0588 248.775 13.1773 248.752 13.3015H241.507V11.9811H247.516L247.076 12.5058C247.076 11.5804 246.867 10.8751 246.45 10.3898C246.032 9.90454 245.451 9.6619 244.706 9.6619C243.905 9.6619 243.267 9.93839 242.793 10.4914C242.331 11.0331 242.099 11.7892 242.099 12.7598C242.099 13.7416 242.331 14.509 242.793 15.062C243.267 15.615 243.922 15.8915 244.757 15.8915C245.265 15.8915 245.705 15.7899 246.077 15.5868C246.45 15.3723 246.726 15.062 246.907 14.6557H248.566C248.284 15.4683 247.804 16.1059 247.127 16.5686C246.461 17.0313 245.66 17.2627 244.723 17.2627Z" fill="#FF5E5E"/>
<rect x="0.588408" y="36.4391" width="248.502" height="39.8109" rx="6.43532" fill="#B65FFF" fill-opacity="0.07"/>
<rect x="0.588408" y="36.4391" width="248.502" height="39.8109" rx="6.43532" stroke="white" stroke-width="0.990049"/>
<path d="M47.1392 62.8446L43.6012 50.6563H45.4295L48.5274 61.8797H48.0872L51.0327 50.6563H53.1488L56.1112 61.8797H55.6711L58.7689 50.6563H60.4956L56.9576 62.8446H54.8585L51.8791 51.9259H52.2346L49.2383 62.8446H47.1392ZM66.4109 62.8446C66.3545 62.6302 66.315 62.3932 66.2925 62.1336C66.2812 61.8741 66.2755 61.5581 66.2755 61.1856H66.1909V57.0721C66.1909 56.5191 66.0498 56.1072 65.7677 55.8363C65.4968 55.5542 65.0623 55.4131 64.4642 55.4131C63.8886 55.4131 63.4259 55.526 63.0761 55.7517C62.7375 55.9774 62.54 56.299 62.4836 56.7166H60.8077C60.8867 55.904 61.2535 55.2551 61.908 54.7698C62.5626 54.2846 63.4372 54.0419 64.5319 54.0419C65.6605 54.0419 66.5069 54.3071 67.0711 54.8376C67.6354 55.3567 67.9176 56.1241 67.9176 57.1398V61.1856C67.9176 61.4452 67.9345 61.7104 67.9683 61.9813C68.0022 62.2521 68.053 62.5399 68.1207 62.8446H66.4109ZM63.4316 63.0139C62.5513 63.0139 61.8516 62.7995 61.3325 62.3706C60.8134 61.9305 60.5538 61.338 60.5538 60.5932C60.5538 59.8257 60.8246 59.222 61.3663 58.7818C61.9193 58.3304 62.7093 58.0257 63.7363 57.8677L66.5802 57.4106V58.6464L64.0071 59.0527C63.4316 59.143 62.9971 59.2953 62.7037 59.5097C62.4215 59.7242 62.2805 60.0345 62.2805 60.4408C62.2805 60.8358 62.4102 61.1349 62.6698 61.338C62.9407 61.5298 63.33 61.6258 63.8379 61.6258C64.515 61.6258 65.0736 61.4621 65.5138 61.1349C65.9652 60.8076 66.1909 60.3957 66.1909 59.8991L66.4109 61.1518C66.2078 61.7499 65.8467 62.2126 65.3275 62.5399C64.8084 62.8559 64.1764 63.0139 63.4316 63.0139ZM72.0224 62.8446L68.5013 54.2112H70.3803L73.2581 62.049H72.4287L75.2726 54.2112H77.0839L73.5798 62.8446H72.0224ZM81.6816 63.0139C80.8127 63.0139 80.0453 62.822 79.3794 62.4383C78.7249 62.0546 78.2114 61.5242 77.8389 60.8471C77.4665 60.1699 77.2803 59.3913 77.2803 58.511C77.2803 57.6194 77.4609 56.8407 77.822 56.1749C78.1944 55.4978 78.7136 54.973 79.3794 54.6006C80.0453 54.2281 80.807 54.0419 81.6647 54.0419C82.4998 54.0419 83.2221 54.2225 83.8315 54.5836C84.4522 54.9335 84.9262 55.4244 85.2535 56.0564C85.5921 56.6884 85.7613 57.4389 85.7613 58.3078C85.7613 58.4433 85.7557 58.5731 85.7444 58.6972C85.7444 58.81 85.7331 58.9285 85.7106 59.0527H78.4653V57.7323H84.4748L84.0347 58.2571C84.0347 57.3317 83.8259 56.6263 83.4083 56.141C82.9908 55.6558 82.4096 55.4131 81.6647 55.4131C80.8635 55.4131 80.2258 55.6896 79.7518 56.2426C79.2891 56.7843 79.0578 57.5404 79.0578 58.511C79.0578 59.4928 79.2891 60.2602 79.7518 60.8132C80.2258 61.3662 80.8804 61.6427 81.7155 61.6427C82.2234 61.6427 82.6635 61.5411 83.0359 61.338C83.4083 61.1236 83.6848 60.8132 83.8654 60.4069H85.5244C85.2422 61.2195 84.7626 61.8571 84.0855 62.3198C83.4196 62.7825 82.6183 63.0139 81.6816 63.0139ZM87.2406 62.8446V50.6563H90.0168L94.0796 62.4045H93.1655L97.1944 50.6563H100.004V62.8446H98.227V51.3842H98.4978L94.5705 62.8446H92.573L88.6456 51.4858H88.9165V62.8446H87.2406ZM102.16 62.8446V54.2112H103.921V62.8446H102.16ZM102.076 52.5184V50.5378H104.022V52.5184H102.076ZM106.054 62.8446V54.2112H107.73V56.2426H107.814V62.8446H106.054ZM112.182 62.8446V57.2922C112.182 56.694 112.029 56.2482 111.725 55.9548C111.431 55.6614 110.991 55.5147 110.404 55.5147C109.896 55.5147 109.445 55.6275 109.05 55.8533C108.666 56.079 108.362 56.3893 108.136 56.7843C107.921 57.1793 107.814 57.6476 107.814 58.1893L107.594 56.1241C107.876 55.4808 108.311 54.973 108.898 54.6006C109.484 54.2281 110.167 54.0419 110.946 54.0419C111.871 54.0419 112.599 54.3015 113.13 54.8206C113.66 55.3398 113.925 56.0282 113.925 56.8859V62.8446H112.182ZM119.373 63.0139C118.369 63.0139 117.63 62.7825 117.156 62.3198C116.693 61.8458 116.462 61.1518 116.462 60.2377V52.2306L118.205 51.5704V60.2546C118.205 60.706 118.324 61.0389 118.561 61.2534C118.798 61.4678 119.182 61.575 119.712 61.575C119.915 61.575 120.096 61.5581 120.254 61.5242C120.412 61.4903 120.547 61.4508 120.66 61.4057V62.8277C120.536 62.8841 120.361 62.9292 120.135 62.9631C119.91 62.997 119.656 63.0139 119.373 63.0139ZM114.735 55.6163V54.2112H120.66V55.6163H114.735ZM124.991 58.9342V57.5461H137.62V58.9342H124.991ZM146.555 63.0139C145.72 63.0139 144.981 62.8615 144.338 62.5568C143.706 62.2521 143.192 61.812 142.797 61.2364C142.414 60.6496 142.177 59.9386 142.086 59.1035H143.931C144.044 59.9047 144.321 60.5142 144.761 60.9317C145.201 61.338 145.788 61.5411 146.521 61.5411C147.199 61.5411 147.74 61.3549 148.147 60.9825C148.553 60.6101 148.756 60.0966 148.756 59.442C148.756 58.7762 148.558 58.2345 148.163 57.8169C147.768 57.3994 147.204 57.1906 146.471 57.1906H145.099V55.7517H146.42C147.074 55.7517 147.582 55.5768 147.943 55.2269C148.305 54.8771 148.485 54.4144 148.485 53.8388C148.485 53.252 148.31 52.7949 147.96 52.4676C147.61 52.129 147.108 51.9598 146.454 51.9598C145.844 51.9598 145.32 52.1403 144.879 52.5015C144.451 52.8626 144.191 53.3874 144.101 54.0758H142.256C142.335 53.3422 142.555 52.7103 142.916 52.1798C143.288 51.6381 143.779 51.2206 144.388 50.9271C145.009 50.6337 145.715 50.487 146.505 50.487C147.283 50.487 147.96 50.6168 148.536 50.8764C149.123 51.1359 149.574 51.5083 149.89 51.9936C150.217 52.4789 150.381 53.0488 150.381 53.7034C150.381 54.2676 150.251 54.7698 149.992 55.21C149.732 55.6501 149.388 55.9943 148.959 56.2426C148.542 56.4796 148.073 56.5981 147.554 56.5981L147.486 56.2426C148.141 56.2426 148.705 56.3893 149.179 56.6827C149.664 56.9649 150.037 57.3542 150.296 57.8508C150.556 58.3361 150.686 58.8947 150.686 59.5267C150.686 60.2264 150.505 60.8414 150.144 61.3719C149.794 61.891 149.309 62.2973 148.688 62.5907C148.068 62.8728 147.357 63.0139 146.555 63.0139ZM154.531 62.8446V52.3322L154.853 52.4676C154.706 52.7836 154.452 53.094 154.091 53.3987C153.73 53.7034 153.313 53.9686 152.839 54.1943C152.365 54.4087 151.862 54.5611 151.332 54.6514V52.9247C151.829 52.8457 152.314 52.699 152.788 52.4845C153.262 52.2588 153.685 51.988 154.057 51.672C154.43 51.3447 154.706 51.0061 154.887 50.6563H156.275V62.8446H154.531ZM158.522 62.8446L167.562 50.6563H169.136L160.113 62.8446H158.522ZM167.071 63.0139C166.597 63.0139 166.151 62.901 165.734 62.6753C165.316 62.4496 164.977 62.1054 164.718 61.6427C164.458 61.18 164.328 60.5932 164.328 59.8822C164.328 59.1712 164.453 58.59 164.701 58.1386C164.96 57.6759 165.299 57.3317 165.717 57.1059C166.134 56.8802 166.586 56.7674 167.071 56.7674C167.579 56.7674 168.041 56.8802 168.459 57.1059C168.888 57.3317 169.226 57.6759 169.475 58.1386C169.723 58.59 169.847 59.1712 169.847 59.8822C169.847 60.5932 169.717 61.18 169.458 61.6427C169.198 62.1054 168.854 62.4496 168.425 62.6753C168.008 62.901 167.556 63.0139 167.071 63.0139ZM167.071 61.9136C167.5 61.9136 167.85 61.7386 168.12 61.3888C168.403 61.0276 168.544 60.5198 168.544 59.8652C168.544 59.222 168.403 58.731 168.12 58.3925C167.85 58.0426 167.5 57.8677 167.071 57.8677C166.642 57.8677 166.298 58.037 166.038 58.3756C165.779 58.7141 165.649 59.2107 165.649 59.8652C165.649 60.5311 165.779 61.0389 166.038 61.3888C166.298 61.7386 166.642 61.9136 167.071 61.9136ZM160.469 56.7335C159.984 56.7335 159.532 56.6207 159.115 56.395C158.697 56.1692 158.358 55.825 158.099 55.3623C157.851 54.8996 157.726 54.3128 157.726 53.6018C157.726 52.8908 157.851 52.3096 158.099 51.8582C158.358 51.3955 158.697 51.0513 159.115 50.8256C159.532 50.5999 159.984 50.487 160.469 50.487C160.977 50.487 161.439 50.5999 161.857 50.8256C162.275 51.0513 162.607 51.3955 162.856 51.8582C163.104 52.3096 163.228 52.8908 163.228 53.6018C163.228 54.3128 163.098 54.8996 162.839 55.3623C162.579 55.825 162.241 56.1692 161.823 56.395C161.406 56.6207 160.954 56.7335 160.469 56.7335ZM160.469 55.6332C160.886 55.6332 161.231 55.4583 161.501 55.1084C161.784 54.7586 161.925 54.2507 161.925 53.5849C161.925 52.9416 161.789 52.4507 161.518 52.1121C161.248 51.7623 160.898 51.5873 160.469 51.5873C160.04 51.5873 159.69 51.7566 159.419 52.0952C159.16 52.4338 159.03 52.9303 159.03 53.5849C159.03 54.2507 159.16 54.7586 159.419 55.1084C159.69 55.4583 160.04 55.6332 160.469 55.6332ZM174.306 58.0878V55.0407H177.353V58.0878H174.306ZM184.794 62.8446V52.3322L185.116 52.4676C184.969 52.7836 184.715 53.094 184.354 53.3987C183.993 53.7034 183.575 53.9686 183.101 54.1943C182.627 54.4087 182.125 54.5611 181.594 54.6514V52.9247C182.091 52.8457 182.576 52.699 183.05 52.4845C183.524 52.2588 183.947 51.988 184.32 51.672C184.692 51.3447 184.969 51.0061 185.149 50.6563H186.537V62.8446H184.794ZM190.022 62.8446C190.18 60.9261 190.637 59.0414 191.393 57.1906C192.149 55.3398 193.221 53.5115 194.609 51.7058L194.66 52.129H187.737V50.6563H196.218V51.9598C195.36 53.2012 194.638 54.42 194.051 55.6163C193.464 56.8012 193.001 57.9862 192.663 59.1712C192.335 60.3562 192.121 61.5806 192.019 62.8446H190.022ZM200.993 63.0139C200.225 63.0139 199.548 62.8672 198.961 62.5738C198.386 62.2803 197.923 61.8571 197.573 61.3041C197.223 60.7511 197.003 60.074 196.913 59.2728H198.758C198.86 60.0627 199.108 60.6383 199.503 60.9994C199.898 61.3606 200.412 61.5411 201.044 61.5411C201.518 61.5411 201.918 61.4452 202.246 61.2534C202.584 61.0615 202.855 60.7681 203.058 60.3731C203.273 59.9781 203.43 59.4759 203.532 58.8665C203.634 58.2458 203.684 57.5066 203.684 56.6489V55.5485L204.175 55.5824C204.062 56.1128 203.837 56.5812 203.498 56.9874C203.16 57.3824 202.736 57.6871 202.229 57.9016C201.732 58.116 201.179 58.2232 200.57 58.2232C199.814 58.2232 199.148 58.0596 198.572 57.7323C197.997 57.405 197.545 56.9536 197.218 56.378C196.891 55.7912 196.727 55.1253 196.727 54.3805C196.727 53.5905 196.907 52.9077 197.269 52.3322C197.63 51.7453 198.132 51.2939 198.775 50.9779C199.43 50.6507 200.18 50.487 201.027 50.487C202.528 50.487 203.673 51.0118 204.463 52.0613C205.264 53.1109 205.665 54.6401 205.665 56.6489C205.665 57.9919 205.479 59.143 205.106 60.1022C204.745 61.0502 204.215 61.7725 203.515 62.269C202.827 62.7656 201.986 63.0139 200.993 63.0139ZM201.094 56.7843C201.828 56.7843 202.415 56.5812 202.855 56.1749C203.306 55.7686 203.532 55.2043 203.532 54.4821C203.532 53.9968 203.425 53.5679 203.21 53.1955C203.007 52.8118 202.72 52.5128 202.347 52.2983C201.975 52.0726 201.54 51.9598 201.044 51.9598C200.333 51.9598 199.763 52.1855 199.334 52.6369C198.916 53.077 198.708 53.6639 198.708 54.3974C198.708 55.1084 198.916 55.684 199.334 56.1241C199.751 56.5642 200.338 56.7843 201.094 56.7843Z" fill="black" fill-opacity="0.7"/>
<rect x="0.588408" y="82.1903" width="248.502" height="39.8109" rx="6.43532" fill="#B65FFF" fill-opacity="0.86"/>
<rect x="0.588408" y="82.1903" width="248.502" height="39.8109" rx="6.43532" stroke="white" stroke-width="0.990049"/>
<g clip-path="url(#clip0_118_116)">
<path d="M55.343 101.594V102.096C55.3423 103.272 54.9615 104.416 54.2573 105.358C53.5532 106.3 52.5634 106.989 51.4356 107.322C50.3078 107.656 49.1024 107.616 47.9993 107.208C46.8961 106.801 45.9542 106.047 45.3141 105.061C44.674 104.074 44.37 102.907 44.4474 101.734C44.5247 100.56 44.9794 99.443 45.7435 98.549C46.5076 97.655 47.5402 97.0319 48.6874 96.7728C49.8345 96.5136 51.0347 96.6322 52.1089 97.1108" stroke="white" stroke-width="1.09075" stroke-linecap="round" stroke-linejoin="round"/>
<path d="M55.343 97.733L49.8892 103.192L48.2531 101.556" stroke="white" stroke-width="1.09075" stroke-linecap="round" stroke-linejoin="round"/>
</g>
<path d="M72.0052 108.748C70.5381 108.748 69.3644 108.398 68.4841 107.699C67.6038 106.999 67.0904 106 66.9436 104.702H68.6872C68.7888 105.549 69.1274 106.192 69.7029 106.632C70.2785 107.072 71.0572 107.292 72.039 107.292C72.8629 107.292 73.4836 107.14 73.9011 106.835C74.33 106.531 74.5444 106.096 74.5444 105.532C74.5444 105.024 74.4033 104.623 74.1212 104.33C73.8391 104.025 73.3933 103.777 72.7839 103.585L70.6678 102.908C69.5844 102.558 68.7888 102.118 68.281 101.588C67.7731 101.057 67.5192 100.386 67.5192 99.5731C67.5192 98.8847 67.6885 98.2922 68.027 97.7956C68.3769 97.2991 68.8622 96.9154 69.4829 96.6445C70.1149 96.3624 70.8484 96.2213 71.6835 96.2213C72.9701 96.2213 73.9971 96.5486 74.7645 97.2031C75.5432 97.8464 75.9889 98.7436 76.1018 99.8947H74.3582C74.2228 99.1273 73.9294 98.5687 73.4779 98.2188C73.0265 97.8577 72.4058 97.6771 71.6158 97.6771C70.871 97.6771 70.2898 97.8238 69.8722 98.1173C69.4547 98.4107 69.2459 98.8226 69.2459 99.353C69.2459 99.7819 69.3813 100.143 69.6522 100.436C69.9343 100.719 70.397 100.961 71.0403 101.164L73.2579 101.875C74.2848 102.203 75.041 102.648 75.5262 103.213C76.0228 103.777 76.2711 104.488 76.2711 105.346C76.2711 106.429 75.8987 107.27 75.1538 107.868C74.409 108.455 73.3594 108.748 72.0052 108.748ZM82.383 108.748C81.5704 108.748 80.8933 108.556 80.3516 108.173C79.8212 107.778 79.4713 107.23 79.302 106.531L79.539 106.497V112.066H77.7785V99.9624H79.4544V101.943L79.2851 101.892C79.4657 101.238 79.8494 100.724 80.4362 100.352C81.0231 99.9794 81.7115 99.7932 82.5015 99.7932C83.2802 99.7932 83.9516 99.9794 84.5159 100.352C85.0915 100.724 85.5316 101.243 85.8363 101.909C86.1523 102.575 86.3103 103.354 86.3103 104.245C86.3103 105.148 86.1467 105.938 85.8194 106.615C85.4921 107.292 85.035 107.817 84.4482 108.19C83.8614 108.562 83.1729 108.748 82.383 108.748ZM82.0105 107.292C82.778 107.292 83.3874 107.022 83.8388 106.48C84.2902 105.938 84.5159 105.193 84.5159 104.245C84.5159 103.309 84.2902 102.581 83.8388 102.062C83.3874 101.531 82.7723 101.266 81.9936 101.266C81.2262 101.266 80.6111 101.537 80.1484 102.078C79.697 102.609 79.4713 103.348 79.4713 104.296C79.4713 105.221 79.697 105.955 80.1484 106.497C80.6111 107.027 81.2318 107.292 82.0105 107.292ZM87.8217 108.596V96.4075H89.5822V108.596H87.8217ZM97.0645 108.596C97.0081 108.381 96.9686 108.144 96.946 107.885C96.9347 107.625 96.9291 107.309 96.9291 106.937H96.8444V102.823C96.8444 102.27 96.7033 101.858 96.4212 101.588C96.1504 101.305 95.7159 101.164 95.1177 101.164C94.5422 101.164 94.0795 101.277 93.7296 101.503C93.3911 101.729 93.1936 102.05 93.1371 102.468H91.4612C91.5402 101.655 91.907 101.006 92.5616 100.521C93.2161 100.036 94.0908 99.7932 95.1854 99.7932C96.314 99.7932 97.1604 100.058 97.7247 100.589C98.289 101.108 98.5711 101.875 98.5711 102.891V106.937C98.5711 107.196 98.588 107.462 98.6219 107.732C98.6557 108.003 98.7065 108.291 98.7742 108.596H97.0645ZM94.0851 108.765C93.2048 108.765 92.5051 108.551 91.986 108.122C91.4669 107.682 91.2073 107.089 91.2073 106.344C91.2073 105.577 91.4782 104.973 92.0199 104.533C92.5729 104.082 93.3628 103.777 94.3898 103.619L97.2338 103.162V104.398L94.6607 104.804C94.0851 104.894 93.6506 105.047 93.3572 105.261C93.0751 105.475 92.934 105.786 92.934 106.192C92.934 106.587 93.0638 106.886 93.3233 107.089C93.5942 107.281 93.9835 107.377 94.4914 107.377C95.1685 107.377 95.7272 107.213 96.1673 106.886C96.6187 106.559 96.8444 106.147 96.8444 105.65L97.0645 106.903C96.8613 107.501 96.5002 107.964 95.9811 108.291C95.4619 108.607 94.83 108.765 94.0851 108.765ZM103.633 108.765C102.505 108.765 101.608 108.517 100.942 108.02C100.276 107.524 99.8978 106.824 99.8075 105.921H101.433C101.512 106.418 101.737 106.801 102.11 107.072C102.493 107.332 103.013 107.462 103.667 107.462C104.243 107.462 104.683 107.36 104.988 107.157C105.292 106.954 105.445 106.666 105.445 106.294C105.445 106.023 105.354 105.797 105.174 105.616C105.004 105.425 104.666 105.267 104.158 105.142L102.77 104.821C101.901 104.606 101.252 104.29 100.823 103.873C100.406 103.444 100.197 102.919 100.197 102.299C100.197 101.52 100.485 100.91 101.06 100.47C101.647 100.019 102.448 99.7932 103.464 99.7932C104.468 99.7932 105.275 100.019 105.885 100.47C106.505 100.922 106.855 101.554 106.934 102.366H105.309C105.241 101.96 105.044 101.65 104.717 101.435C104.401 101.209 103.966 101.097 103.413 101.097C102.894 101.097 102.493 101.193 102.211 101.384C101.94 101.565 101.805 101.819 101.805 102.146C101.805 102.417 101.907 102.643 102.11 102.823C102.324 103.004 102.674 103.156 103.159 103.28L104.581 103.636C105.405 103.839 106.026 104.172 106.443 104.635C106.861 105.086 107.07 105.633 107.07 106.277C107.07 107.055 106.765 107.665 106.156 108.105C105.557 108.545 104.717 108.765 103.633 108.765ZM108.363 108.596V96.4075H110.124V108.596H108.363ZM114.491 108.596V103.043C114.491 102.445 114.339 101.999 114.034 101.706C113.741 101.413 113.3 101.266 112.714 101.266C112.206 101.266 111.754 101.379 111.359 101.604C110.976 101.83 110.671 102.141 110.445 102.536C110.231 102.931 110.124 103.399 110.124 103.941L109.903 101.875C110.186 101.232 110.62 100.724 111.207 100.352C111.794 99.9794 112.477 99.7932 113.255 99.7932C114.181 99.7932 114.909 100.053 115.439 100.572C115.969 101.091 116.235 101.779 116.235 102.637V108.596H114.491ZM121.291 104.685V103.297H133.92V104.685H121.291ZM142.787 108.765C141.557 108.765 140.57 108.443 139.825 107.8C139.08 107.146 138.623 106.282 138.454 105.21H140.299C140.434 105.865 140.722 106.378 141.162 106.751C141.602 107.112 142.127 107.292 142.737 107.292C143.391 107.292 143.939 107.084 144.379 106.666C144.83 106.237 145.056 105.571 145.056 104.668C145.056 103.777 144.836 103.105 144.396 102.654C143.955 102.191 143.391 101.96 142.703 101.96C142.24 101.96 141.828 102.062 141.467 102.265C141.106 102.457 140.846 102.71 140.688 103.026H139.063L139.656 96.4075H146.275V97.8803H140.502L141.281 97.4909L140.925 102.028L140.434 101.909C140.66 101.525 140.993 101.215 141.433 100.978C141.885 100.73 142.438 100.606 143.092 100.606C143.848 100.606 144.52 100.769 145.107 101.097C145.693 101.424 146.151 101.892 146.478 102.502C146.805 103.111 146.969 103.833 146.969 104.668C146.969 105.526 146.794 106.26 146.444 106.869C146.105 107.479 145.62 107.947 144.988 108.274C144.367 108.601 143.634 108.765 142.787 108.765ZM153.81 108.596V105.379L153.878 105.041V98.0834L154.521 98.2696L149.442 105.142L148.748 104.482H157.111V105.955H147.8V104.584L153.878 96.4075H155.655V108.596H153.81ZM158.128 108.596L167.168 96.4075H168.742L159.719 108.596H158.128ZM166.677 108.765C166.203 108.765 165.757 108.652 165.34 108.427C164.922 108.201 164.584 107.857 164.324 107.394C164.064 106.931 163.935 106.344 163.935 105.633C163.935 104.922 164.059 104.341 164.307 103.89C164.567 103.427 164.905 103.083 165.323 102.857C165.74 102.631 166.192 102.519 166.677 102.519C167.185 102.519 167.648 102.631 168.065 102.857C168.494 103.083 168.832 103.427 169.081 103.89C169.329 104.341 169.453 104.922 169.453 105.633C169.453 106.344 169.323 106.931 169.064 107.394C168.804 107.857 168.46 108.201 168.031 108.427C167.614 108.652 167.162 108.765 166.677 108.765ZM166.677 107.665C167.106 107.665 167.456 107.49 167.727 107.14C168.009 106.779 168.15 106.271 168.15 105.616C168.15 104.973 168.009 104.482 167.727 104.144C167.456 103.794 167.106 103.619 166.677 103.619C166.248 103.619 165.904 103.788 165.644 104.127C165.385 104.465 165.255 104.962 165.255 105.616C165.255 106.282 165.385 106.79 165.644 107.14C165.904 107.49 166.248 107.665 166.677 107.665ZM160.075 102.485C159.59 102.485 159.138 102.372 158.721 102.146C158.303 101.92 157.965 101.576 157.705 101.114C157.457 100.651 157.333 100.064 157.333 99.353C157.333 98.642 157.457 98.0608 157.705 97.6094C157.965 97.1467 158.303 96.8025 158.721 96.5768C159.138 96.3511 159.59 96.2382 160.075 96.2382C160.583 96.2382 161.046 96.3511 161.463 96.5768C161.881 96.8025 162.214 97.1467 162.462 97.6094C162.71 98.0608 162.834 98.642 162.834 99.353C162.834 100.064 162.704 100.651 162.445 101.114C162.185 101.576 161.847 101.92 161.429 102.146C161.012 102.372 160.56 102.485 160.075 102.485ZM160.075 101.384C160.493 101.384 160.837 101.209 161.108 100.86C161.39 100.51 161.531 100.002 161.531 99.3361C161.531 98.6928 161.395 98.2019 161.125 97.8633C160.854 97.5135 160.504 97.3386 160.075 97.3386C159.646 97.3386 159.296 97.5078 159.025 97.8464C158.766 98.185 158.636 98.6815 158.636 99.3361C158.636 100.002 158.766 100.51 159.025 100.86C159.296 101.209 159.646 101.384 160.075 101.384ZM173.912 103.839V100.792H176.959V103.839H173.912ZM185.839 108.765C185.004 108.765 184.265 108.613 183.621 108.308C182.989 108.003 182.476 107.563 182.081 106.988C181.697 106.401 181.46 105.69 181.37 104.855H183.215C183.328 105.656 183.604 106.265 184.045 106.683C184.485 107.089 185.071 107.292 185.805 107.292C186.482 107.292 187.024 107.106 187.43 106.734C187.836 106.361 188.04 105.848 188.04 105.193C188.04 104.527 187.842 103.986 187.447 103.568C187.052 103.151 186.488 102.942 185.754 102.942H184.383V101.503H185.703C186.358 101.503 186.866 101.328 187.227 100.978C187.588 100.628 187.769 100.166 187.769 99.59C187.769 99.0032 187.594 98.5461 187.244 98.2188C186.894 97.8803 186.392 97.711 185.737 97.711C185.128 97.711 184.603 97.8916 184.163 98.2527C183.734 98.6138 183.475 99.1386 183.384 99.827H181.539C181.618 99.0935 181.838 98.4615 182.199 97.9311C182.572 97.3894 183.063 96.9718 183.672 96.6784C184.293 96.3849 184.998 96.2382 185.788 96.2382C186.567 96.2382 187.244 96.368 187.82 96.6276C188.406 96.8871 188.858 97.2596 189.174 97.7448C189.501 98.2301 189.665 98.8 189.665 99.4546C189.665 100.019 189.535 100.521 189.275 100.961C189.016 101.401 188.672 101.746 188.243 101.994C187.825 102.231 187.357 102.349 186.838 102.349L186.77 101.994C187.425 101.994 187.989 102.141 188.463 102.434C188.948 102.716 189.32 103.105 189.58 103.602C189.84 104.087 189.969 104.646 189.969 105.278C189.969 105.978 189.789 106.593 189.428 107.123C189.078 107.642 188.593 108.048 187.972 108.342C187.351 108.624 186.64 108.765 185.839 108.765ZM193.815 108.596V98.0834L194.137 98.2188C193.99 98.5348 193.736 98.8452 193.375 99.1499C193.014 99.4546 192.596 99.7198 192.122 99.9455C191.648 100.16 191.146 100.312 190.616 100.403V98.6759C191.112 98.5969 191.597 98.4502 192.071 98.2358C192.545 98.0101 192.969 97.7392 193.341 97.4232C193.713 97.0959 193.99 96.7574 194.17 96.4075H195.559V108.596H193.815ZM197.076 108.596V107.123C198.261 106.153 199.249 105.306 200.039 104.584C200.84 103.862 201.478 103.218 201.952 102.654C202.426 102.09 202.764 101.576 202.967 101.114C203.17 100.651 203.272 100.188 203.272 99.7254C203.272 99.0935 203.086 98.6025 202.713 98.2527C202.352 97.8916 201.85 97.711 201.207 97.711C200.541 97.711 199.999 97.9085 199.582 98.3035C199.164 98.6872 198.904 99.2345 198.803 99.9455H196.975C197.087 98.8282 197.522 97.9311 198.278 97.2539C199.046 96.5768 200.056 96.2382 201.308 96.2382C202.505 96.2382 203.447 96.5542 204.135 97.1862C204.835 97.8182 205.185 98.6872 205.185 99.7932C205.185 100.357 205.078 100.922 204.863 101.486C204.66 102.039 204.321 102.62 203.847 103.23C203.373 103.828 202.736 104.494 201.935 105.227C201.145 105.949 200.163 106.773 198.989 107.699L198.566 107.123H205.405V108.596H197.076Z" fill="white"/>
<rect x="0.588408" y="127.942" width="248.502" height="39.8109" rx="6.43532" fill="#B65FFF" fill-opacity="0.07"/>
<rect x="0.588408" y="127.942" width="248.502" height="39.8109" rx="6.43532" stroke="white" stroke-width="0.990049"/>
<path d="M54.0922 154.347V142.159H55.8866V154.347H54.0922ZM55.5141 148.016L61.5575 142.159H64.0121L57.7656 148.016H55.5141ZM61.8284 154.347L55.4803 148.016H57.7656L64.3507 154.347H61.8284ZM65.2756 154.347V145.714H66.9515V147.864H67.0362V154.347H65.2756ZM67.0362 149.844L66.8161 147.796C67.0192 147.062 67.3691 146.504 67.8656 146.12C68.3622 145.736 68.9547 145.544 69.6431 145.544C69.9027 145.544 70.0832 145.567 70.1848 145.612V147.271C70.1284 147.248 70.0494 147.237 69.9478 147.237C69.8462 147.226 69.7221 147.22 69.5754 147.22C68.729 147.22 68.0914 147.44 67.6625 147.88C67.2449 148.321 67.0362 148.975 67.0362 149.844ZM71.2686 154.347V145.714H73.0291V154.347H71.2686ZM71.184 144.021V142.04H73.1307V144.021H71.184ZM75.1621 154.347V142.159H76.9226V154.347H75.1621ZM79.0556 154.347V142.159H80.8161V154.347H79.0556ZM88.3322 154.516C87.4858 154.516 86.7015 154.364 85.9792 154.059C85.257 153.743 84.6306 153.309 84.1002 152.756C83.5811 152.192 83.1748 151.526 82.8814 150.758C82.5879 149.991 82.4412 149.15 82.4412 148.236C82.4412 147.322 82.5823 146.487 82.8644 145.731C83.1579 144.963 83.5641 144.303 84.0833 143.75C84.6137 143.186 85.24 142.751 85.9623 142.447C86.6846 142.142 87.4689 141.989 88.3153 141.989C89.2633 141.989 90.1153 142.181 90.8715 142.565C91.6276 142.937 92.2427 143.468 92.7166 144.156C93.2019 144.845 93.501 145.646 93.6138 146.56H91.8533C91.7066 145.601 91.3172 144.856 90.6853 144.326C90.0646 143.784 89.2802 143.513 88.3322 143.513C87.531 143.513 86.82 143.71 86.1993 144.105C85.5899 144.489 85.1159 145.037 84.7773 145.748C84.4388 146.447 84.2695 147.277 84.2695 148.236C84.2695 149.184 84.4388 150.019 84.7773 150.741C85.1272 151.452 85.6068 152.005 86.2162 152.4C86.8256 152.795 87.531 152.993 88.3322 152.993C89.2802 152.993 90.0702 152.728 90.7022 152.197C91.3455 151.655 91.7348 150.905 91.8702 149.946H93.6477C93.5236 150.871 93.2189 151.678 92.7336 152.366C92.2483 153.044 91.6276 153.574 90.8715 153.958C90.1266 154.33 89.2802 154.516 88.3322 154.516ZM98.9159 154.516C98.0357 154.516 97.2626 154.324 96.5968 153.941C95.9309 153.546 95.4118 153.01 95.0394 152.333C94.667 151.644 94.4807 150.865 94.4807 149.996C94.4807 149.116 94.667 148.343 95.0394 147.677C95.4231 147.011 95.9422 146.492 96.5968 146.12C97.2626 145.736 98.0357 145.544 98.9159 145.544C99.8075 145.544 100.586 145.736 101.252 146.12C101.918 146.492 102.431 147.011 102.793 147.677C103.165 148.343 103.351 149.116 103.351 149.996C103.351 150.865 103.165 151.644 102.793 152.333C102.431 153.01 101.918 153.546 101.252 153.941C100.586 154.324 99.8075 154.516 98.9159 154.516ZM98.9159 153.077C99.4464 153.077 99.9034 152.948 100.287 152.688C100.682 152.429 100.992 152.067 101.218 151.605C101.444 151.142 101.557 150.6 101.557 149.98C101.557 149.054 101.308 148.326 100.812 147.796C100.327 147.254 99.6946 146.983 98.9159 146.983C98.1485 146.983 97.5165 147.254 97.02 147.796C96.5347 148.338 96.2921 149.065 96.2921 149.98C96.2921 150.6 96.3993 151.142 96.6137 151.605C96.8394 152.067 97.1498 152.429 97.5448 152.688C97.951 152.948 98.4081 153.077 98.9159 153.077ZM104.804 154.347V145.714H106.565V154.347H104.804ZM104.72 144.021V142.04H106.666V144.021H104.72ZM108.698 154.347V145.714H110.374V147.745H110.458V154.347H108.698ZM114.826 154.347V148.795C114.826 148.196 114.673 147.751 114.369 147.457C114.075 147.164 113.635 147.017 113.048 147.017C112.541 147.017 112.089 147.13 111.694 147.356C111.31 147.581 111.006 147.892 110.78 148.287C110.566 148.682 110.458 149.15 110.458 149.692L110.238 147.627C110.52 146.983 110.955 146.475 111.542 146.103C112.129 145.731 112.811 145.544 113.59 145.544C114.515 145.544 115.243 145.804 115.774 146.323C116.304 146.842 116.569 147.531 116.569 148.388V154.347H114.826ZM121.626 150.437V149.049H134.254V150.437H121.626ZM141.751 154.347V143.835L142.073 143.97C141.926 144.286 141.672 144.596 141.311 144.901C140.95 145.206 140.532 145.471 140.058 145.697C139.584 145.911 139.082 146.064 138.552 146.154V144.427C139.048 144.348 139.533 144.201 140.007 143.987C140.481 143.761 140.905 143.49 141.277 143.174C141.649 142.847 141.926 142.509 142.107 142.159H143.495V154.347H141.751ZM149.214 154.516C147.984 154.516 146.997 154.195 146.252 153.551C145.507 152.897 145.05 152.034 144.881 150.961H146.726C146.861 151.616 147.149 152.129 147.589 152.502C148.029 152.863 148.554 153.044 149.164 153.044C149.818 153.044 150.366 152.835 150.806 152.417C151.257 151.988 151.483 151.323 151.483 150.42C151.483 149.528 151.263 148.857 150.823 148.405C150.382 147.943 149.818 147.711 149.13 147.711C148.667 147.711 148.255 147.813 147.894 148.016C147.533 148.208 147.273 148.462 147.115 148.778H145.49L146.083 142.159H152.702V143.631H146.929L147.708 143.242L147.352 147.779L146.861 147.66C147.087 147.277 147.42 146.966 147.86 146.729C148.312 146.481 148.865 146.357 149.519 146.357C150.275 146.357 150.947 146.521 151.534 146.848C152.12 147.175 152.577 147.643 152.905 148.253C153.232 148.862 153.396 149.585 153.396 150.42C153.396 151.277 153.221 152.011 152.871 152.62C152.532 153.23 152.047 153.698 151.415 154.025C150.794 154.353 150.061 154.516 149.214 154.516ZM154.661 154.347L163.7 142.159H165.275L156.252 154.347H154.661ZM163.21 154.516C162.736 154.516 162.29 154.403 161.872 154.178C161.455 153.952 161.116 153.608 160.857 153.145C160.597 152.682 160.467 152.096 160.467 151.385C160.467 150.674 160.591 150.092 160.84 149.641C161.099 149.178 161.438 148.834 161.855 148.608C162.273 148.383 162.724 148.27 163.21 148.27C163.717 148.27 164.18 148.383 164.598 148.608C165.027 148.834 165.365 149.178 165.613 149.641C165.862 150.092 165.986 150.674 165.986 151.385C165.986 152.096 165.856 152.682 165.596 153.145C165.337 153.608 164.993 153.952 164.564 154.178C164.146 154.403 163.695 154.516 163.21 154.516ZM163.21 153.416C163.638 153.416 163.988 153.241 164.259 152.891C164.541 152.53 164.682 152.022 164.682 151.368C164.682 150.724 164.541 150.233 164.259 149.895C163.988 149.545 163.638 149.37 163.21 149.37C162.781 149.37 162.436 149.539 162.177 149.878C161.917 150.217 161.788 150.713 161.788 151.368C161.788 152.034 161.917 152.541 162.177 152.891C162.436 153.241 162.781 153.416 163.21 153.416ZM156.608 148.236C156.122 148.236 155.671 148.123 155.253 147.897C154.836 147.672 154.497 147.327 154.238 146.865C153.989 146.402 153.865 145.815 153.865 145.104C153.865 144.393 153.989 143.812 154.238 143.361C154.497 142.898 154.836 142.554 155.253 142.328C155.671 142.102 156.122 141.989 156.608 141.989C157.115 141.989 157.578 142.102 157.996 142.328C158.413 142.554 158.746 142.898 158.994 143.361C159.243 143.812 159.367 144.393 159.367 145.104C159.367 145.815 159.237 146.402 158.977 146.865C158.718 147.327 158.379 147.672 157.962 147.897C157.544 148.123 157.093 148.236 156.608 148.236ZM156.608 147.136C157.025 147.136 157.369 146.961 157.64 146.611C157.922 146.261 158.063 145.753 158.063 145.087C158.063 144.444 157.928 143.953 157.657 143.615C157.386 143.265 157.036 143.09 156.608 143.09C156.179 143.09 155.829 143.259 155.558 143.598C155.298 143.936 155.169 144.433 155.169 145.087C155.169 145.753 155.298 146.261 155.558 146.611C155.829 146.961 156.179 147.136 156.608 147.136ZM170.445 149.59V146.543H173.492V149.59H170.445ZM182.338 154.516C181.457 154.516 180.69 154.364 180.035 154.059C179.392 153.755 178.89 153.337 178.529 152.807C178.179 152.265 178.004 151.655 178.004 150.978C178.004 150.369 178.134 149.822 178.393 149.336C178.664 148.851 179.031 148.467 179.494 148.185C179.968 147.892 180.492 147.745 181.068 147.745L181.186 148.101C180.611 148.101 180.109 147.982 179.68 147.745C179.251 147.497 178.912 147.158 178.664 146.729C178.427 146.289 178.309 145.798 178.309 145.257C178.309 144.613 178.478 144.049 178.817 143.564C179.155 143.067 179.623 142.684 180.222 142.413C180.831 142.131 181.542 141.989 182.355 141.989C183.156 141.989 183.856 142.131 184.454 142.413C185.052 142.684 185.52 143.067 185.859 143.564C186.197 144.049 186.367 144.613 186.367 145.257C186.367 145.798 186.242 146.284 185.994 146.712C185.757 147.141 185.424 147.48 184.995 147.728C184.566 147.976 184.059 148.101 183.472 148.101L183.607 147.745C184.194 147.745 184.719 147.892 185.182 148.185C185.644 148.467 186.005 148.851 186.265 149.336C186.536 149.822 186.671 150.375 186.671 150.995C186.671 151.672 186.491 152.276 186.13 152.807C185.78 153.337 185.277 153.755 184.623 154.059C183.98 154.364 183.218 154.516 182.338 154.516ZM182.338 153.044C183.082 153.044 183.669 152.846 184.098 152.451C184.538 152.045 184.758 151.503 184.758 150.826C184.758 150.16 184.538 149.635 184.098 149.252C183.669 148.868 183.082 148.676 182.338 148.676C181.593 148.676 181 148.868 180.56 149.252C180.131 149.635 179.917 150.16 179.917 150.826C179.917 151.503 180.131 152.045 180.56 152.451C181 152.846 181.593 153.044 182.338 153.044ZM182.338 147.271C182.992 147.271 183.506 147.102 183.878 146.763C184.262 146.425 184.454 145.968 184.454 145.392C184.454 144.805 184.256 144.337 183.861 143.987C183.477 143.637 182.97 143.462 182.338 143.462C181.694 143.462 181.181 143.637 180.797 143.987C180.413 144.337 180.222 144.805 180.222 145.392C180.222 145.968 180.413 146.425 180.797 146.763C181.181 147.102 181.694 147.271 182.338 147.271ZM189.401 154.347C189.559 152.429 190.016 150.544 190.772 148.693C191.528 146.842 192.6 145.014 193.988 143.208L194.039 143.631H187.115V142.159H195.597V143.462C194.739 144.704 194.017 145.922 193.43 147.119C192.843 148.304 192.38 149.489 192.042 150.674C191.714 151.859 191.5 153.083 191.398 154.347H189.401Z" fill="black"/>
<defs>
<clipPath id="clip0_118_116">
<rect width="13.0889" height="13.0889" fill="white" transform="translate(43.3448 95.5513)"/>
</clipPath>
</defs>
</svg>
