<svg width="263" height="173" viewBox="0 0 263 173" fill="none" xmlns="http://www.w3.org/2000/svg">
<path d="M16.6667 5L7.50001 14.1667L3.33334 10" stroke="#10B981" stroke-opacity="0.8" stroke-width="2.67" stroke-linecap="round" stroke-linejoin="round"/>
<path d="M32.184 16V4.48H33.88V16H32.184ZM33.016 16V14.608H39.672V16H33.016ZM41.2859 16V4.48H46.1659C46.9979 4.48 47.7072 4.61867 48.2939 4.896C48.8805 5.17333 49.3285 5.568 49.6379 6.08C49.9579 6.592 50.1179 7.2 50.1179 7.904C50.1179 8.61867 49.9579 9.23733 49.6379 9.76C49.3285 10.272 48.8752 10.672 48.2779 10.96C47.6912 11.248 46.9872 11.392 46.1659 11.392H42.5819V9.984H46.0859C46.8432 9.984 47.4192 9.80267 47.8139 9.44C48.2192 9.07733 48.4219 8.57067 48.4219 7.92C48.4219 7.25867 48.2245 6.752 47.8299 6.4C47.4352 6.048 46.8539 5.872 46.0859 5.872H42.9819V16H41.2859ZM54.3803 16V4.48H56.0763V16H54.3803ZM55.2123 16V14.608H61.8683V16H55.2123ZM66.315 16.16C65.483 16.16 64.7523 15.9787 64.123 15.616C63.4937 15.2427 63.003 14.736 62.651 14.096C62.299 13.4453 62.123 12.7093 62.123 11.888C62.123 11.056 62.299 10.3253 62.651 9.696C63.0137 9.06667 63.5043 8.576 64.123 8.224C64.7523 7.86133 65.483 7.68 66.315 7.68C67.1577 7.68 67.8937 7.86133 68.523 8.224C69.1523 8.576 69.6377 9.06667 69.979 9.696C70.331 10.3253 70.507 11.056 70.507 11.888C70.507 12.7093 70.331 13.4453 69.979 14.096C69.6377 14.736 69.1523 15.2427 68.523 15.616C67.8937 15.9787 67.1577 16.16 66.315 16.16ZM66.315 14.8C66.8163 14.8 67.2483 14.6773 67.611 14.432C67.9843 14.1867 68.2777 13.8453 68.491 13.408C68.7043 12.9707 68.811 12.4587 68.811 11.872C68.811 10.9973 68.5763 10.3093 68.107 9.808C67.6483 9.296 67.051 9.04 66.315 9.04C65.5897 9.04 64.9923 9.296 64.523 9.808C64.0643 10.32 63.835 11.008 63.835 11.872C63.835 12.4587 63.9363 12.9707 64.139 13.408C64.3523 13.8453 64.6457 14.1867 65.019 14.432C65.403 14.6773 65.835 14.8 66.315 14.8ZM75.2881 16.16C74.5095 16.16 73.8161 15.9787 73.2081 15.616C72.6001 15.2427 72.1201 14.736 71.7681 14.096C71.4268 13.456 71.2561 12.7253 71.2561 11.904C71.2561 11.0827 71.4268 10.3573 71.7681 9.728C72.1201 9.088 72.6001 8.58667 73.2081 8.224C73.8161 7.86133 74.5041 7.68 75.2721 7.68C75.9228 7.68 76.5041 7.80267 77.0161 8.048C77.5281 8.29333 77.9495 8.63467 78.2801 9.072C78.6108 9.50933 78.8241 10.0267 78.9201 10.624H77.3521C77.2455 10.144 77.0108 9.76 76.6481 9.472C76.2961 9.184 75.8481 9.04 75.3041 9.04C74.8348 9.04 74.4241 9.15733 74.0721 9.392C73.7201 9.62667 73.4481 9.95733 73.2561 10.384C73.0641 10.8107 72.9681 11.3173 72.9681 11.904C72.9681 12.48 73.0641 12.9867 73.2561 13.424C73.4481 13.8613 73.7201 14.2027 74.0721 14.448C74.4241 14.6827 74.8401 14.8 75.3201 14.8C75.8428 14.8 76.2855 14.6613 76.6481 14.384C77.0215 14.096 77.2615 13.712 77.3681 13.232H78.9361C78.8295 13.8187 78.6055 14.3307 78.2641 14.768C77.9335 15.2053 77.5121 15.5467 77.0001 15.792C76.4881 16.0373 75.9175 16.16 75.2881 16.16ZM80.2636 16V4.272H81.9276V16H80.2636ZM85.5596 16L81.5436 11.76L85.4316 7.84H87.5276L83.1116 12.128L83.1916 11.376L87.6876 16H85.5596ZM88.5835 16V14.016H90.5515V16H88.5835ZM88.5835 10.208V8.224H90.5515V10.208H88.5835ZM97.5901 16V6.064L97.8941 6.192C97.7555 6.49067 97.5155 6.784 97.1741 7.072C96.8328 7.36 96.4381 7.61067 95.9901 7.824C95.5421 8.02667 95.0675 8.17067 94.5661 8.256V6.624C95.0355 6.54933 95.4941 6.41067 95.9421 6.208C96.3901 5.99467 96.7901 5.73867 97.1421 5.44C97.4941 5.13067 97.7555 4.81067 97.9261 4.48H99.2381V16H97.5901ZM100.673 16V14.608C101.793 13.6907 102.726 12.8907 103.473 12.208C104.23 11.5253 104.833 10.9173 105.281 10.384C105.729 9.85067 106.049 9.36533 106.241 8.928C106.433 8.49067 106.529 8.05333 106.529 7.616C106.529 7.01867 106.353 6.55467 106.001 6.224C105.659 5.88267 105.185 5.712 104.577 5.712C103.947 5.712 103.435 5.89867 103.041 6.272C102.646 6.63467 102.401 7.152 102.305 7.824H100.577C100.683 6.768 101.094 5.92 101.809 5.28C102.534 4.64 103.489 4.32 104.673 4.32C105.803 4.32 106.694 4.61867 107.345 5.216C108.006 5.81333 108.337 6.63467 108.337 7.68C108.337 8.21333 108.235 8.74667 108.033 9.28C107.841 9.80267 107.521 10.352 107.073 10.928C106.625 11.4933 106.022 12.1227 105.265 12.816C104.518 13.4987 103.59 14.2773 102.481 15.152L102.081 14.608H108.545V16H100.673ZM112.609 16V7.84H114.193V9.76H114.273V16H112.609ZM118.113 16V10.672C118.113 10.1173 117.985 9.712 117.729 9.456C117.473 9.2 117.105 9.072 116.625 9.072C116.177 9.072 115.772 9.17867 115.409 9.392C115.057 9.59467 114.78 9.88267 114.577 10.256C114.375 10.6187 114.273 11.0507 114.273 11.552L114.065 9.648C114.332 9.04 114.732 8.56 115.265 8.208C115.809 7.856 116.417 7.68 117.089 7.68C117.9 7.68 118.545 7.91467 119.025 8.384C119.516 8.85333 119.761 9.472 119.761 10.24V16H118.113ZM123.617 16V10.672C123.617 10.1173 123.484 9.712 123.217 9.456C122.961 9.2 122.593 9.072 122.113 9.072C121.676 9.072 121.276 9.17867 120.913 9.392C120.561 9.59467 120.279 9.88267 120.065 10.256C119.863 10.6187 119.761 11.0507 119.761 11.552L119.425 9.648C119.703 9.04 120.119 8.56 120.673 8.208C121.239 7.856 121.868 7.68 122.561 7.68C123.383 7.68 124.039 7.92 124.529 8.4C125.02 8.86933 125.265 9.49867 125.265 10.288V16H123.617ZM130.732 16.16C129.9 16.16 129.169 15.9787 128.54 15.616C127.911 15.2427 127.42 14.736 127.068 14.096C126.716 13.4453 126.54 12.7093 126.54 11.888C126.54 11.056 126.716 10.3253 127.068 9.696C127.431 9.06667 127.921 8.576 128.54 8.224C129.169 7.86133 129.9 7.68 130.732 7.68C131.575 7.68 132.311 7.86133 132.94 8.224C133.569 8.576 134.055 9.06667 134.396 9.696C134.748 10.3253 134.924 11.056 134.924 11.888C134.924 12.7093 134.748 13.4453 134.396 14.096C134.055 14.736 133.569 15.2427 132.94 15.616C132.311 15.9787 131.575 16.16 130.732 16.16ZM130.732 14.8C131.233 14.8 131.665 14.6773 132.028 14.432C132.401 14.1867 132.695 13.8453 132.908 13.408C133.121 12.9707 133.228 12.4587 133.228 11.872C133.228 10.9973 132.993 10.3093 132.524 9.808C132.065 9.296 131.468 9.04 130.732 9.04C130.007 9.04 129.409 9.296 128.94 9.808C128.481 10.32 128.252 11.008 128.252 11.872C128.252 12.4587 128.353 12.9707 128.556 13.408C128.769 13.8453 129.063 14.1867 129.436 14.432C129.82 14.6773 130.252 14.8 130.732 14.8ZM136.313 16V7.84H137.897V9.76H137.977V16H136.313ZM142.105 16V10.752C142.105 10.1867 141.961 9.76533 141.673 9.488C141.396 9.21067 140.98 9.072 140.425 9.072C139.945 9.072 139.518 9.17867 139.145 9.392C138.782 9.60533 138.494 9.89867 138.281 10.272C138.078 10.6453 137.977 11.088 137.977 11.6L137.769 9.648C138.036 9.04 138.446 8.56 139.001 8.208C139.556 7.856 140.201 7.68 140.937 7.68C141.812 7.68 142.5 7.92533 143.001 8.416C143.502 8.90667 143.753 9.55733 143.753 10.368V16H142.105ZM148.902 16.16C147.953 16.16 147.254 15.9413 146.806 15.504C146.369 15.056 146.15 14.4 146.15 13.536V5.968L147.798 5.344V13.552C147.798 13.9787 147.91 14.2933 148.134 14.496C148.358 14.6987 148.721 14.8 149.222 14.8C149.414 14.8 149.585 14.784 149.734 14.752C149.884 14.72 150.012 14.6827 150.118 14.64V15.984C150.001 16.0373 149.836 16.08 149.622 16.112C149.409 16.144 149.169 16.16 148.902 16.16ZM144.518 9.168V7.84H150.118V9.168H144.518ZM151.376 16V4.48H153.04V16H151.376ZM157.168 16V10.752C157.168 10.1867 157.024 9.76533 156.736 9.488C156.459 9.21067 156.043 9.072 155.488 9.072C155.008 9.072 154.581 9.17867 154.208 9.392C153.845 9.60533 153.557 9.89867 153.344 10.272C153.141 10.6453 153.04 11.088 153.04 11.6L152.832 9.648C153.099 9.04 153.509 8.56 154.064 8.208C154.619 7.856 155.264 7.68 156 7.68C156.875 7.68 157.563 7.92533 158.064 8.416C158.565 8.90667 158.816 9.55733 158.816 10.368V16H157.168ZM163.672 16.16C162.605 16.16 161.757 15.9253 161.128 15.456C160.499 14.9867 160.141 14.3253 160.056 13.472H161.592C161.667 13.9413 161.88 14.304 162.232 14.56C162.595 14.8053 163.085 14.928 163.704 14.928C164.248 14.928 164.664 14.832 164.952 14.64C165.24 14.448 165.384 14.176 165.384 13.824C165.384 13.568 165.299 13.3547 165.128 13.184C164.968 13.0027 164.648 12.8533 164.168 12.736L162.856 12.432C162.035 12.2293 161.421 11.9307 161.016 11.536C160.621 11.1307 160.424 10.6347 160.424 10.048C160.424 9.312 160.696 8.736 161.24 8.32C161.795 7.89333 162.552 7.68 163.512 7.68C164.461 7.68 165.224 7.89333 165.8 8.32C166.387 8.74667 166.717 9.344 166.792 10.112H165.256C165.192 9.728 165.005 9.43467 164.696 9.232C164.397 9.01867 163.987 8.912 163.464 8.912C162.973 8.912 162.595 9.00267 162.328 9.184C162.072 9.35467 161.944 9.59467 161.944 9.904C161.944 10.16 162.04 10.3733 162.232 10.544C162.435 10.7147 162.765 10.8587 163.224 10.976L164.568 11.312C165.347 11.504 165.933 11.8187 166.328 12.256C166.723 12.6827 166.92 13.2 166.92 13.808C166.92 14.544 166.632 15.12 166.056 15.536C165.491 15.952 164.696 16.16 163.672 16.16Z" fill="#111827" fill-opacity="0.9"/>
<path d="M16.6667 34L7.50001 43.1667L3.33334 39" stroke="#10B981" stroke-opacity="0.8" stroke-width="2.67" stroke-linecap="round" stroke-linejoin="round"/>
<path d="M31.512 45L35.848 33.48H37.32L33.176 45H31.512ZM40.424 45L36.28 33.48H37.832L42.184 45H40.424ZM33.704 40.408H39.88V41.816H33.704V40.408ZM45.6759 45.16C45.1319 45.16 44.6519 45.048 44.2359 44.824C43.8199 44.5893 43.4945 44.2693 43.2599 43.864C43.0359 43.4587 42.9239 42.9947 42.9239 42.472V36.84H44.5879V42.088C44.5879 42.6533 44.7265 43.0747 45.0039 43.352C45.2812 43.6293 45.6759 43.768 46.1879 43.768C46.6465 43.768 47.0519 43.6613 47.4039 43.448C47.7665 43.2347 48.0492 42.9413 48.2519 42.568C48.4652 42.184 48.5719 41.7413 48.5719 41.24L48.7799 43.192C48.5132 43.7893 48.1025 44.2693 47.5479 44.632C47.0039 44.984 46.3799 45.16 45.6759 45.16ZM48.6359 45V43.08H48.5719V36.84H50.2199V45H48.6359ZM58.0723 45V43.128L58.2323 43.176C58.0616 43.784 57.7096 44.2693 57.1763 44.632C56.6429 44.984 56.0029 45.16 55.2563 45.16C54.5203 45.16 53.8749 44.984 53.3203 44.632C52.7763 44.28 52.3496 43.7893 52.0403 43.16C51.7416 42.5307 51.5923 41.7947 51.5923 40.952C51.5923 40.0987 51.7469 39.352 52.0563 38.712C52.3656 38.072 52.7976 37.576 53.3523 37.224C53.9069 36.872 54.5576 36.696 55.3043 36.696C56.0829 36.696 56.7229 36.8827 57.2243 37.256C57.7363 37.6187 58.0723 38.1307 58.2323 38.792L58.0083 38.824V33.48H59.6563V45H58.0723ZM55.6723 43.768C56.4083 43.768 56.9896 43.5173 57.4163 43.016C57.8429 42.504 58.0563 41.8 58.0563 40.904C58.0563 40.0293 57.8376 39.3413 57.4003 38.84C56.9736 38.328 56.3923 38.072 55.6563 38.072C54.9309 38.072 54.3549 38.328 53.9283 38.84C53.5123 39.3413 53.3043 40.0453 53.3043 40.952C53.3043 41.8373 53.5123 42.5307 53.9283 43.032C54.3549 43.5227 54.9363 43.768 55.6723 43.768ZM61.6768 45V36.84H63.3408V45H61.6768ZM61.5968 35.24V33.368H63.4368V35.24H61.5968ZM68.7663 45.16C67.8169 45.16 67.1183 44.9413 66.6703 44.504C66.2329 44.056 66.0143 43.4 66.0143 42.536V34.968L67.6623 34.344V42.552C67.6623 42.9787 67.7743 43.2933 67.9983 43.496C68.2223 43.6987 68.5849 43.8 69.0863 43.8C69.2783 43.8 69.4489 43.784 69.5983 43.752C69.7476 43.72 69.8756 43.6827 69.9823 43.64V44.984C69.8649 45.0373 69.6996 45.08 69.4863 45.112C69.2729 45.144 69.0329 45.16 68.7663 45.16ZM64.3823 38.168V36.84H69.9823V38.168H64.3823ZM77.4681 45.16C76.6895 45.16 75.9961 44.9787 75.3881 44.616C74.7801 44.2427 74.3001 43.736 73.9481 43.096C73.6068 42.456 73.4361 41.7253 73.4361 40.904C73.4361 40.0827 73.6068 39.3573 73.9481 38.728C74.3001 38.088 74.7801 37.5867 75.3881 37.224C75.9961 36.8613 76.6841 36.68 77.4521 36.68C78.1028 36.68 78.6841 36.8027 79.1961 37.048C79.7081 37.2933 80.1295 37.6347 80.4601 38.072C80.7908 38.5093 81.0041 39.0267 81.1001 39.624H79.5321C79.4255 39.144 79.1908 38.76 78.8281 38.472C78.4761 38.184 78.0281 38.04 77.4841 38.04C77.0148 38.04 76.6041 38.1573 76.2521 38.392C75.9001 38.6267 75.6281 38.9573 75.4361 39.384C75.2441 39.8107 75.1481 40.3173 75.1481 40.904C75.1481 41.48 75.2441 41.9867 75.4361 42.424C75.6281 42.8613 75.9001 43.2027 76.2521 43.448C76.6041 43.6827 77.0201 43.8 77.5001 43.8C78.0228 43.8 78.4655 43.6613 78.8281 43.384C79.2015 43.096 79.4415 42.712 79.5481 42.232H81.1161C81.0095 42.8187 80.7855 43.3307 80.4441 43.768C80.1135 44.2053 79.6921 44.5467 79.1801 44.792C78.6681 45.0373 78.0975 45.16 77.4681 45.16ZM82.4436 45V33.48H84.1076V45H82.4436ZM88.2356 45V39.752C88.2356 39.1867 88.0916 38.7653 87.8036 38.488C87.5263 38.2107 87.1103 38.072 86.5556 38.072C86.0756 38.072 85.649 38.1787 85.2756 38.392C84.913 38.6053 84.625 38.8987 84.4116 39.272C84.209 39.6453 84.1076 40.088 84.1076 40.6L83.8996 38.648C84.1663 38.04 84.577 37.56 85.1316 37.208C85.6863 36.856 86.3316 36.68 87.0676 36.68C87.9423 36.68 88.6303 36.9253 89.1316 37.416C89.633 37.9067 89.8836 38.5573 89.8836 39.368V45H88.2356ZM95.3467 45.16C94.5254 45.16 93.8001 44.9787 93.1707 44.616C92.5521 44.2533 92.0667 43.752 91.7147 43.112C91.3627 42.472 91.1867 41.736 91.1867 40.904C91.1867 40.0613 91.3574 39.3253 91.6987 38.696C92.0507 38.056 92.5414 37.56 93.1707 37.208C93.8001 36.856 94.5201 36.68 95.3307 36.68C96.1201 36.68 96.8027 36.8507 97.3787 37.192C97.9654 37.5227 98.4134 37.9867 98.7227 38.584C99.0427 39.1813 99.2027 39.8907 99.2027 40.712C99.2027 40.84 99.1974 40.9627 99.1867 41.08C99.1867 41.1867 99.1761 41.2987 99.1547 41.416H92.3067V40.168H97.9867L97.5707 40.664C97.5707 39.7893 97.3734 39.1227 96.9787 38.664C96.5841 38.2053 96.0347 37.976 95.3307 37.976C94.5734 37.976 93.9707 38.2373 93.5227 38.76C93.0854 39.272 92.8667 39.9867 92.8667 40.904C92.8667 41.832 93.0854 42.5573 93.5227 43.08C93.9707 43.6027 94.5894 43.864 95.3787 43.864C95.8587 43.864 96.2747 43.768 96.6267 43.576C96.9787 43.3733 97.2401 43.08 97.4107 42.696H98.9787C98.7121 43.464 98.2587 44.0667 97.6187 44.504C96.9894 44.9413 96.2321 45.16 95.3467 45.16ZM104.024 45.16C103.245 45.16 102.552 44.9787 101.944 44.616C101.336 44.2427 100.856 43.736 100.504 43.096C100.162 42.456 99.9918 41.7253 99.9918 40.904C99.9918 40.0827 100.162 39.3573 100.504 38.728C100.856 38.088 101.336 37.5867 101.944 37.224C102.552 36.8613 103.24 36.68 104.008 36.68C104.658 36.68 105.24 36.8027 105.752 37.048C106.264 37.2933 106.685 37.6347 107.016 38.072C107.346 38.5093 107.56 39.0267 107.656 39.624H106.088C105.981 39.144 105.746 38.76 105.384 38.472C105.032 38.184 104.584 38.04 104.04 38.04C103.57 38.04 103.16 38.1573 102.808 38.392C102.456 38.6267 102.184 38.9573 101.992 39.384C101.8 39.8107 101.704 40.3173 101.704 40.904C101.704 41.48 101.8 41.9867 101.992 42.424C102.184 42.8613 102.456 43.2027 102.808 43.448C103.16 43.6827 103.576 43.8 104.056 43.8C104.578 43.8 105.021 43.6613 105.384 43.384C105.757 43.096 105.997 42.712 106.104 42.232H107.672C107.565 42.8187 107.341 43.3307 107 43.768C106.669 44.2053 106.248 44.5467 105.736 44.792C105.224 45.0373 104.653 45.16 104.024 45.16ZM108.999 45V33.272H110.663V45H108.999ZM114.295 45L110.279 40.76L114.167 36.84H116.263L111.847 41.128L111.927 40.376L116.423 45H114.295ZM120.061 45.16C118.994 45.16 118.146 44.9253 117.517 44.456C116.887 43.9867 116.53 43.3253 116.445 42.472H117.981C118.055 42.9413 118.269 43.304 118.621 43.56C118.983 43.8053 119.474 43.928 120.093 43.928C120.637 43.928 121.053 43.832 121.341 43.64C121.629 43.448 121.773 43.176 121.773 42.824C121.773 42.568 121.687 42.3547 121.517 42.184C121.357 42.0027 121.037 41.8533 120.557 41.736L119.245 41.432C118.423 41.2293 117.81 40.9307 117.405 40.536C117.01 40.1307 116.813 39.6347 116.813 39.048C116.813 38.312 117.085 37.736 117.629 37.32C118.183 36.8933 118.941 36.68 119.901 36.68C120.85 36.68 121.613 36.8933 122.189 37.32C122.775 37.7467 123.106 38.344 123.181 39.112H121.645C121.581 38.728 121.394 38.4347 121.085 38.232C120.786 38.0187 120.375 37.912 119.853 37.912C119.362 37.912 118.983 38.0027 118.717 38.184C118.461 38.3547 118.333 38.5947 118.333 38.904C118.333 39.16 118.429 39.3733 118.621 39.544C118.823 39.7147 119.154 39.8587 119.613 39.976L120.957 40.312C121.735 40.504 122.322 40.8187 122.717 41.256C123.111 41.6827 123.309 42.2 123.309 42.808C123.309 43.544 123.021 44.12 122.445 44.536C121.879 44.952 121.085 45.16 120.061 45.16ZM131.719 45.144C130.951 45.144 130.311 44.9627 129.799 44.6C129.298 44.2267 128.967 43.7093 128.807 43.048L129.031 43.016V48.28H127.367V36.84H128.951V38.712L128.791 38.664C128.962 38.0453 129.325 37.56 129.879 37.208C130.434 36.856 131.085 36.68 131.831 36.68C132.567 36.68 133.202 36.856 133.735 37.208C134.279 37.56 134.695 38.0507 134.983 38.68C135.282 39.3093 135.431 40.0453 135.431 40.888C135.431 41.7413 135.277 42.488 134.967 43.128C134.658 43.768 134.226 44.264 133.671 44.616C133.117 44.968 132.466 45.144 131.719 45.144ZM131.367 43.768C132.093 43.768 132.669 43.512 133.095 43C133.522 42.488 133.735 41.784 133.735 40.888C133.735 40.0027 133.522 39.3147 133.095 38.824C132.669 38.3227 132.087 38.072 131.351 38.072C130.626 38.072 130.045 38.328 129.607 38.84C129.181 39.3413 128.967 40.04 128.967 40.936C128.967 41.8107 129.181 42.504 129.607 43.016C130.045 43.5173 130.631 43.768 131.367 43.768ZM141.931 45C141.878 44.7973 141.841 44.5733 141.819 44.328C141.809 44.0827 141.803 43.784 141.803 43.432H141.723V39.544C141.723 39.0213 141.59 38.632 141.323 38.376C141.067 38.1093 140.657 37.976 140.091 37.976C139.547 37.976 139.11 38.0827 138.779 38.296C138.459 38.5093 138.273 38.8133 138.219 39.208H136.635C136.71 38.44 137.057 37.8267 137.675 37.368C138.294 36.9093 139.121 36.68 140.155 36.68C141.222 36.68 142.022 36.9307 142.555 37.432C143.089 37.9227 143.355 38.648 143.355 39.608V43.432C143.355 43.6773 143.371 43.928 143.403 44.184C143.435 44.44 143.483 44.712 143.547 45H141.931ZM139.115 45.16C138.283 45.16 137.622 44.9573 137.131 44.552C136.641 44.136 136.395 43.576 136.395 42.872C136.395 42.1467 136.651 41.576 137.163 41.16C137.686 40.7333 138.433 40.4453 139.403 40.296L142.091 39.864V41.032L139.659 41.416C139.115 41.5013 138.705 41.6453 138.427 41.848C138.161 42.0507 138.027 42.344 138.027 42.728C138.027 43.1013 138.15 43.384 138.395 43.576C138.651 43.7573 139.019 43.848 139.499 43.848C140.139 43.848 140.667 43.6933 141.083 43.384C141.51 43.0747 141.723 42.6853 141.723 42.216L141.931 43.4C141.739 43.9653 141.398 44.4027 140.907 44.712C140.417 45.0107 139.819 45.16 139.115 45.16ZM148.14 45.16C147.073 45.16 146.225 44.9253 145.596 44.456C144.967 43.9867 144.609 43.3253 144.524 42.472H146.06C146.135 42.9413 146.348 43.304 146.7 43.56C147.063 43.8053 147.553 43.928 148.172 43.928C148.716 43.928 149.132 43.832 149.42 43.64C149.708 43.448 149.852 43.176 149.852 42.824C149.852 42.568 149.767 42.3547 149.596 42.184C149.436 42.0027 149.116 41.8533 148.636 41.736L147.324 41.432C146.503 41.2293 145.889 40.9307 145.484 40.536C145.089 40.1307 144.892 39.6347 144.892 39.048C144.892 38.312 145.164 37.736 145.708 37.32C146.263 36.8933 147.02 36.68 147.98 36.68C148.929 36.68 149.692 36.8933 150.268 37.32C150.855 37.7467 151.185 38.344 151.26 39.112H149.724C149.66 38.728 149.473 38.4347 149.164 38.232C148.865 38.0187 148.455 37.912 147.932 37.912C147.441 37.912 147.063 38.0027 146.796 38.184C146.54 38.3547 146.412 38.5947 146.412 38.904C146.412 39.16 146.508 39.3733 146.7 39.544C146.903 39.7147 147.233 39.8587 147.692 39.976L149.036 40.312C149.815 40.504 150.401 40.8187 150.796 41.256C151.191 41.6827 151.388 42.2 151.388 42.808C151.388 43.544 151.1 44.12 150.524 44.536C149.959 44.952 149.164 45.16 148.14 45.16ZM155.695 45.16C154.628 45.16 153.78 44.9253 153.151 44.456C152.522 43.9867 152.164 43.3253 152.079 42.472H153.615C153.69 42.9413 153.903 43.304 154.255 43.56C154.618 43.8053 155.108 43.928 155.727 43.928C156.271 43.928 156.687 43.832 156.975 43.64C157.263 43.448 157.407 43.176 157.407 42.824C157.407 42.568 157.322 42.3547 157.151 42.184C156.991 42.0027 156.671 41.8533 156.191 41.736L154.879 41.432C154.058 41.2293 153.444 40.9307 153.039 40.536C152.644 40.1307 152.447 39.6347 152.447 39.048C152.447 38.312 152.719 37.736 153.263 37.32C153.818 36.8933 154.575 36.68 155.535 36.68C156.484 36.68 157.247 36.8933 157.823 37.32C158.41 37.7467 158.74 38.344 158.815 39.112H157.279C157.215 38.728 157.028 38.4347 156.719 38.232C156.42 38.0187 156.01 37.912 155.487 37.912C154.996 37.912 154.618 38.0027 154.351 38.184C154.095 38.3547 153.967 38.5947 153.967 38.904C153.967 39.16 154.063 39.3733 154.255 39.544C154.458 39.7147 154.788 39.8587 155.247 39.976L156.591 40.312C157.37 40.504 157.956 40.8187 158.351 41.256C158.746 41.6827 158.943 42.2 158.943 42.808C158.943 43.544 158.655 44.12 158.079 44.536C157.514 44.952 156.719 45.16 155.695 45.16ZM163.967 45.16C163.145 45.16 162.42 44.9787 161.791 44.616C161.172 44.2533 160.687 43.752 160.335 43.112C159.983 42.472 159.807 41.736 159.807 40.904C159.807 40.0613 159.977 39.3253 160.319 38.696C160.671 38.056 161.161 37.56 161.791 37.208C162.42 36.856 163.14 36.68 163.951 36.68C164.74 36.68 165.423 36.8507 165.999 37.192C166.585 37.5227 167.033 37.9867 167.343 38.584C167.663 39.1813 167.823 39.8907 167.823 40.712C167.823 40.84 167.817 40.9627 167.807 41.08C167.807 41.1867 167.796 41.2987 167.775 41.416H160.927V40.168H166.607L166.191 40.664C166.191 39.7893 165.993 39.1227 165.599 38.664C165.204 38.2053 164.655 37.976 163.951 37.976C163.193 37.976 162.591 38.2373 162.143 38.76C161.705 39.272 161.487 39.9867 161.487 40.904C161.487 41.832 161.705 42.5573 162.143 43.08C162.591 43.6027 163.209 43.864 163.999 43.864C164.479 43.864 164.895 43.768 165.247 43.576C165.599 43.3733 165.86 43.08 166.031 42.696H167.599C167.332 43.464 166.879 44.0667 166.239 44.504C165.609 44.9413 164.852 45.16 163.967 45.16ZM175.14 45V43.128L175.3 43.176C175.129 43.784 174.777 44.2693 174.244 44.632C173.71 44.984 173.07 45.16 172.324 45.16C171.588 45.16 170.942 44.984 170.388 44.632C169.844 44.28 169.417 43.7893 169.108 43.16C168.809 42.5307 168.66 41.7947 168.66 40.952C168.66 40.0987 168.814 39.352 169.124 38.712C169.433 38.072 169.865 37.576 170.42 37.224C170.974 36.872 171.625 36.696 172.372 36.696C173.15 36.696 173.79 36.8827 174.292 37.256C174.804 37.6187 175.14 38.1307 175.3 38.792L175.076 38.824V33.48H176.724V45H175.14ZM172.74 43.768C173.476 43.768 174.057 43.5173 174.484 43.016C174.91 42.504 175.124 41.8 175.124 40.904C175.124 40.0293 174.905 39.3413 174.468 38.84C174.041 38.328 173.46 38.072 172.724 38.072C171.998 38.072 171.422 38.328 170.996 38.84C170.58 39.3413 170.372 40.0453 170.372 40.952C170.372 41.8373 170.58 42.5307 170.996 43.032C171.422 43.5227 172.004 43.768 172.74 43.768Z" fill="#111827" fill-opacity="0.9"/>
<path d="M16.6667 63L7.50001 72.1667L3.33334 68" stroke="#10B981" stroke-opacity="0.8" stroke-width="2.67" stroke-linecap="round" stroke-linejoin="round"/>
<path d="M36.36 74.144C34.9733 74.144 33.864 73.8133 33.032 73.152C32.2 72.4907 31.7147 71.5467 31.576 70.32H33.224C33.32 71.12 33.64 71.728 34.184 72.144C34.728 72.56 35.464 72.768 36.392 72.768C37.1707 72.768 37.7573 72.624 38.152 72.336C38.5573 72.048 38.76 71.6373 38.76 71.104C38.76 70.624 38.6267 70.2453 38.36 69.968C38.0933 69.68 37.672 69.4453 37.096 69.264L35.096 68.624C34.072 68.2933 33.32 67.8773 32.84 67.376C32.36 66.8747 32.12 66.24 32.12 65.472C32.12 64.8213 32.28 64.2613 32.6 63.792C32.9307 63.3227 33.3893 62.96 33.976 62.704C34.5733 62.4373 35.2667 62.304 36.056 62.304C37.272 62.304 38.2427 62.6133 38.968 63.232C39.704 63.84 40.1253 64.688 40.232 65.776H38.584C38.456 65.0507 38.1787 64.5227 37.752 64.192C37.3253 63.8507 36.7387 63.68 35.992 63.68C35.288 63.68 34.7387 63.8187 34.344 64.096C33.9493 64.3733 33.752 64.7627 33.752 65.264C33.752 65.6693 33.88 66.0107 34.136 66.288C34.4027 66.5547 34.84 66.784 35.448 66.976L37.544 67.648C38.5147 67.9573 39.2293 68.3787 39.688 68.912C40.1573 69.4453 40.392 70.1173 40.392 70.928C40.392 71.952 40.04 72.7467 39.336 73.312C38.632 73.8667 37.64 74.144 36.36 74.144ZM44.4415 74.16C43.8975 74.16 43.4175 74.048 43.0015 73.824C42.5855 73.5893 42.2602 73.2693 42.0255 72.864C41.8015 72.4587 41.6895 71.9947 41.6895 71.472V65.84H43.3535V71.088C43.3535 71.6533 43.4922 72.0747 43.7695 72.352C44.0468 72.6293 44.4415 72.768 44.9535 72.768C45.4122 72.768 45.8175 72.6613 46.1695 72.448C46.5322 72.2347 46.8148 71.9413 47.0175 71.568C47.2308 71.184 47.3375 70.7413 47.3375 70.24L47.5455 72.192C47.2788 72.7893 46.8682 73.2693 46.3135 73.632C45.7695 73.984 45.1455 74.16 44.4415 74.16ZM47.4015 74V72.08H47.3375V65.84H48.9855V74H47.4015ZM55.3488 74.144C54.5808 74.144 53.9408 73.9627 53.4288 73.6C52.9274 73.2267 52.5968 72.7093 52.4368 72.048L52.6608 72.016V77.28H50.9968V65.84H52.5808V67.712L52.4208 67.664C52.5914 67.0453 52.9541 66.56 53.5088 66.208C54.0634 65.856 54.7141 65.68 55.4608 65.68C56.1968 65.68 56.8314 65.856 57.3648 66.208C57.9088 66.56 58.3248 67.0507 58.6128 67.68C58.9114 68.3093 59.0608 69.0453 59.0608 69.888C59.0608 70.7413 58.9061 71.488 58.5968 72.128C58.2874 72.768 57.8554 73.264 57.3008 73.616C56.7461 73.968 56.0954 74.144 55.3488 74.144ZM54.9968 72.768C55.7221 72.768 56.2981 72.512 56.7248 72C57.1514 71.488 57.3648 70.784 57.3648 69.888C57.3648 69.0027 57.1514 68.3147 56.7248 67.824C56.2981 67.3227 55.7168 67.072 54.9808 67.072C54.2554 67.072 53.6741 67.328 53.2368 67.84C52.8101 68.3413 52.5968 69.04 52.5968 69.936C52.5968 70.8107 52.8101 71.504 53.2368 72.016C53.6741 72.5173 54.2608 72.768 54.9968 72.768ZM64.8413 74.144C64.0733 74.144 63.4333 73.9627 62.9213 73.6C62.4199 73.2267 62.0893 72.7093 61.9293 72.048L62.1533 72.016V77.28H60.4893V65.84H62.0733V67.712L61.9133 67.664C62.0839 67.0453 62.4466 66.56 63.0013 66.208C63.5559 65.856 64.2066 65.68 64.9533 65.68C65.6893 65.68 66.3239 65.856 66.8573 66.208C67.4013 66.56 67.8173 67.0507 68.1053 67.68C68.4039 68.3093 68.5533 69.0453 68.5533 69.888C68.5533 70.7413 68.3986 71.488 68.0893 72.128C67.7799 72.768 67.3479 73.264 66.7933 73.616C66.2386 73.968 65.5879 74.144 64.8413 74.144ZM64.4893 72.768C65.2146 72.768 65.7906 72.512 66.2173 72C66.6439 71.488 66.8573 70.784 66.8573 69.888C66.8573 69.0027 66.6439 68.3147 66.2173 67.824C65.7906 67.3227 65.2093 67.072 64.4733 67.072C63.7479 67.072 63.1666 67.328 62.7293 67.84C62.3026 68.3413 62.0893 69.04 62.0893 69.936C62.0893 70.8107 62.3026 71.504 62.7293 72.016C63.1666 72.5173 63.7533 72.768 64.4893 72.768ZM69.9818 74V62.48H71.6458V74H69.9818ZM74.2698 77.28L76.2378 72.784L76.5738 72.256L79.0538 65.84H80.7818L75.9818 77.28H74.2698ZM76.1578 74L72.6698 65.84H74.4778L77.4378 73.184L76.1578 74ZM88.0544 74.16C87.2757 74.16 86.5824 73.9787 85.9744 73.616C85.3664 73.2427 84.8864 72.736 84.5344 72.096C84.193 71.456 84.0224 70.7253 84.0224 69.904C84.0224 69.0827 84.193 68.3573 84.5344 67.728C84.8864 67.088 85.3664 66.5867 85.9744 66.224C86.5824 65.8613 87.2704 65.68 88.0384 65.68C88.689 65.68 89.2704 65.8027 89.7824 66.048C90.2944 66.2933 90.7157 66.6347 91.0464 67.072C91.377 67.5093 91.5904 68.0267 91.6864 68.624H90.1184C90.0117 68.144 89.777 67.76 89.4144 67.472C89.0624 67.184 88.6144 67.04 88.0704 67.04C87.601 67.04 87.1904 67.1573 86.8384 67.392C86.4864 67.6267 86.2144 67.9573 86.0224 68.384C85.8304 68.8107 85.7344 69.3173 85.7344 69.904C85.7344 70.48 85.8304 70.9867 86.0224 71.424C86.2144 71.8613 86.4864 72.2027 86.8384 72.448C87.1904 72.6827 87.6064 72.8 88.0864 72.8C88.609 72.8 89.0517 72.6613 89.4144 72.384C89.7877 72.096 90.0277 71.712 90.1344 71.232H91.7024C91.5957 71.8187 91.3717 72.3307 91.0304 72.768C90.6997 73.2053 90.2784 73.5467 89.7664 73.792C89.2544 74.0373 88.6837 74.16 88.0544 74.16ZM98.0077 74C97.9544 73.7973 97.9171 73.5733 97.8957 73.328C97.8851 73.0827 97.8797 72.784 97.8797 72.432H97.7997V68.544C97.7997 68.0213 97.6664 67.632 97.3997 67.376C97.1437 67.1093 96.7331 66.976 96.1677 66.976C95.6237 66.976 95.1864 67.0827 94.8557 67.296C94.5357 67.5093 94.3491 67.8133 94.2957 68.208H92.7117C92.7864 67.44 93.1331 66.8267 93.7517 66.368C94.3704 65.9093 95.1971 65.68 96.2317 65.68C97.2984 65.68 98.0984 65.9307 98.6317 66.432C99.1651 66.9227 99.4317 67.648 99.4317 68.608V72.432C99.4317 72.6773 99.4477 72.928 99.4797 73.184C99.5117 73.44 99.5597 73.712 99.6237 74H98.0077ZM95.1917 74.16C94.3597 74.16 93.6984 73.9573 93.2077 73.552C92.7171 73.136 92.4717 72.576 92.4717 71.872C92.4717 71.1467 92.7277 70.576 93.2397 70.16C93.7624 69.7333 94.5091 69.4453 95.4797 69.296L98.1677 68.864V70.032L95.7357 70.416C95.1917 70.5013 94.7811 70.6453 94.5037 70.848C94.2371 71.0507 94.1037 71.344 94.1037 71.728C94.1037 72.1013 94.2264 72.384 94.4717 72.576C94.7277 72.7573 95.0957 72.848 95.5757 72.848C96.2157 72.848 96.7437 72.6933 97.1597 72.384C97.5864 72.0747 97.7997 71.6853 97.7997 71.216L98.0077 72.4C97.8157 72.9653 97.4744 73.4027 96.9837 73.712C96.4931 74.0107 95.8957 74.16 95.1917 74.16ZM105.718 74.144C104.95 74.144 104.31 73.9627 103.798 73.6C103.297 73.2267 102.966 72.7093 102.806 72.048L103.03 72.016V77.28H101.366V65.84H102.95V67.712L102.79 67.664C102.961 67.0453 103.323 66.56 103.878 66.208C104.433 65.856 105.083 65.68 105.83 65.68C106.566 65.68 107.201 65.856 107.734 66.208C108.278 66.56 108.694 67.0507 108.982 67.68C109.281 68.3093 109.43 69.0453 109.43 69.888C109.43 70.7413 109.275 71.488 108.966 72.128C108.657 72.768 108.225 73.264 107.67 73.616C107.115 73.968 106.465 74.144 105.718 74.144ZM105.366 72.768C106.091 72.768 106.667 72.512 107.094 72C107.521 71.488 107.734 70.784 107.734 69.888C107.734 69.0027 107.521 68.3147 107.094 67.824C106.667 67.3227 106.086 67.072 105.35 67.072C104.625 67.072 104.043 67.328 103.606 67.84C103.179 68.3413 102.966 69.04 102.966 69.936C102.966 70.8107 103.179 71.504 103.606 72.016C104.043 72.5173 104.63 72.768 105.366 72.768ZM113.818 74.16C112.752 74.16 111.904 73.9253 111.274 73.456C110.645 72.9867 110.288 72.3253 110.202 71.472H111.738C111.813 71.9413 112.026 72.304 112.378 72.56C112.741 72.8053 113.232 72.928 113.85 72.928C114.394 72.928 114.81 72.832 115.098 72.64C115.386 72.448 115.53 72.176 115.53 71.824C115.53 71.568 115.445 71.3547 115.274 71.184C115.114 71.0027 114.794 70.8533 114.314 70.736L113.002 70.432C112.181 70.2293 111.568 69.9307 111.162 69.536C110.768 69.1307 110.57 68.6347 110.57 68.048C110.57 67.312 110.842 66.736 111.386 66.32C111.941 65.8933 112.698 65.68 113.658 65.68C114.608 65.68 115.37 65.8933 115.946 66.32C116.533 66.7467 116.864 67.344 116.938 68.112H115.402C115.338 67.728 115.152 67.4347 114.842 67.232C114.544 67.0187 114.133 66.912 113.61 66.912C113.12 66.912 112.741 67.0027 112.474 67.184C112.218 67.3547 112.09 67.5947 112.09 67.904C112.09 68.16 112.186 68.3733 112.378 68.544C112.581 68.7147 112.912 68.8587 113.37 68.976L114.714 69.312C115.493 69.504 116.08 69.8187 116.474 70.256C116.869 70.6827 117.066 71.2 117.066 71.808C117.066 72.544 116.778 73.12 116.202 73.536C115.637 73.952 114.842 74.16 113.818 74.16ZM124.069 74.16C123.002 74.16 122.154 73.9253 121.525 73.456C120.896 72.9867 120.538 72.3253 120.453 71.472H121.989C122.064 71.9413 122.277 72.304 122.629 72.56C122.992 72.8053 123.482 72.928 124.101 72.928C124.645 72.928 125.061 72.832 125.349 72.64C125.637 72.448 125.781 72.176 125.781 71.824C125.781 71.568 125.696 71.3547 125.525 71.184C125.365 71.0027 125.045 70.8533 124.565 70.736L123.253 70.432C122.432 70.2293 121.818 69.9307 121.413 69.536C121.018 69.1307 120.821 68.6347 120.821 68.048C120.821 67.312 121.093 66.736 121.637 66.32C122.192 65.8933 122.949 65.68 123.909 65.68C124.858 65.68 125.621 65.8933 126.197 66.32C126.784 66.7467 127.114 67.344 127.189 68.112H125.653C125.589 67.728 125.402 67.4347 125.093 67.232C124.794 67.0187 124.384 66.912 123.861 66.912C123.37 66.912 122.992 67.0027 122.725 67.184C122.469 67.3547 122.341 67.5947 122.341 67.904C122.341 68.16 122.437 68.3733 122.629 68.544C122.832 68.7147 123.162 68.8587 123.621 68.976L124.965 69.312C125.744 69.504 126.33 69.8187 126.725 70.256C127.12 70.6827 127.317 71.2 127.317 71.808C127.317 72.544 127.029 73.12 126.453 73.536C125.888 73.952 125.093 74.16 124.069 74.16ZM132.34 74.16C131.519 74.16 130.794 73.9787 130.164 73.616C129.546 73.2533 129.06 72.752 128.708 72.112C128.356 71.472 128.18 70.736 128.18 69.904C128.18 69.0613 128.351 68.3253 128.692 67.696C129.044 67.056 129.535 66.56 130.164 66.208C130.794 65.856 131.514 65.68 132.324 65.68C133.114 65.68 133.796 65.8507 134.372 66.192C134.959 66.5227 135.407 66.9867 135.716 67.584C136.036 68.1813 136.196 68.8907 136.196 69.712C136.196 69.84 136.191 69.9627 136.18 70.08C136.18 70.1867 136.17 70.2987 136.148 70.416H129.3V69.168H134.98L134.564 69.664C134.564 68.7893 134.367 68.1227 133.972 67.664C133.578 67.2053 133.028 66.976 132.324 66.976C131.567 66.976 130.964 67.2373 130.516 67.76C130.079 68.272 129.86 68.9867 129.86 69.904C129.86 70.832 130.079 71.5573 130.516 72.08C130.964 72.6027 131.583 72.864 132.372 72.864C132.852 72.864 133.268 72.768 133.62 72.576C133.972 72.3733 134.234 72.08 134.404 71.696H135.972C135.706 72.464 135.252 73.0667 134.612 73.504C133.983 73.9413 133.226 74.16 132.34 74.16ZM140.91 74.16C139.961 74.16 139.262 73.9413 138.814 73.504C138.377 73.056 138.158 72.4 138.158 71.536V63.968L139.806 63.344V71.552C139.806 71.9787 139.918 72.2933 140.142 72.496C140.366 72.6987 140.729 72.8 141.23 72.8C141.422 72.8 141.593 72.784 141.742 72.752C141.891 72.72 142.019 72.6827 142.126 72.64V73.984C142.009 74.0373 141.843 74.08 141.63 74.112C141.417 74.144 141.177 74.16 140.91 74.16ZM136.526 67.168V65.84H142.126V67.168H136.526Z" fill="#111827" fill-opacity="0.9"/>
<rect y="98" width="263" height="45" rx="10" fill="black"/>
<path d="M113.378 127V113.597H116.431L120.898 126.516H119.893L124.324 113.597H127.414V127H125.459V114.397H125.757L121.438 127H119.242L114.923 114.509H115.221V127H113.378ZM129.785 127V117.506H131.721V127H129.785ZM129.692 115.644V113.466H131.832V115.644H129.692ZM134.066 127V117.506H135.909V119.74H136.002V127H134.066ZM140.805 127V120.894C140.805 120.236 140.638 119.746 140.303 119.423C139.98 119.101 139.496 118.939 138.851 118.939C138.292 118.939 137.796 119.063 137.361 119.312C136.939 119.56 136.604 119.901 136.356 120.335C136.12 120.77 136.002 121.285 136.002 121.881L135.76 119.609C136.071 118.902 136.548 118.344 137.194 117.934C137.839 117.524 138.59 117.32 139.446 117.32C140.464 117.32 141.264 117.605 141.848 118.176C142.431 118.747 142.723 119.504 142.723 120.447V127H140.805ZM148.714 127.186C147.61 127.186 146.797 126.932 146.275 126.423C145.767 125.902 145.512 125.138 145.512 124.133V115.328L147.43 114.602V124.152C147.43 124.648 147.56 125.014 147.821 125.25C148.081 125.486 148.503 125.604 149.086 125.604C149.31 125.604 149.508 125.585 149.682 125.548C149.856 125.511 150.005 125.467 150.129 125.418V126.981C149.992 127.043 149.8 127.093 149.552 127.13C149.304 127.168 149.024 127.186 148.714 127.186ZM143.613 119.051V117.506H150.129V119.051H143.613Z" fill="white"/>
<path d="M4.4 169V158.872H0.512V157.48H9.984V158.872H6.096V169H4.4ZM15.4476 169L12.8396 165.272L9.52763 160.84H11.4156L13.7996 164.248L17.3356 169H15.4476ZM12.9516 164.248L15.3836 160.84H17.2076L13.7836 165.384L12.9516 164.248ZM13.6236 165.432L10.9996 169H9.15963L12.8236 164.264L13.6236 165.432ZM21.4573 164.504V161.624H24.3373V164.504H21.4573ZM33.3541 169.16C32.4261 169.16 31.6101 168.909 30.9061 168.408C30.2021 167.896 29.6528 167.192 29.2581 166.296C28.8635 165.389 28.6661 164.355 28.6661 163.192C28.6661 162.029 28.8635 161.011 29.2581 160.136C29.6528 159.251 30.2021 158.563 30.9061 158.072C31.6101 157.571 32.4261 157.32 33.3541 157.32C34.2821 157.32 35.0928 157.571 35.7861 158.072C36.4901 158.563 37.0395 159.251 37.4341 160.136C37.8288 161.011 38.0261 162.029 38.0261 163.192C38.0261 164.365 37.8288 165.4 37.4341 166.296C37.0395 167.192 36.4901 167.896 35.7861 168.408C35.0821 168.909 34.2715 169.16 33.3541 169.16ZM33.3541 167.704C33.9621 167.704 34.4795 167.517 34.9061 167.144C35.3328 166.76 35.6528 166.232 35.8661 165.56C36.0901 164.877 36.2021 164.083 36.2021 163.176C36.2021 162.28 36.0901 161.501 35.8661 160.84C35.6528 160.179 35.3328 159.672 34.9061 159.32C34.4901 158.957 33.9728 158.776 33.3541 158.776C32.7248 158.776 32.1968 158.957 31.7701 159.32C31.3541 159.683 31.0341 160.195 30.8101 160.856C30.5968 161.507 30.4901 162.28 30.4901 163.176C30.4901 164.083 30.6021 164.877 30.8261 165.56C31.0501 166.243 31.3701 166.771 31.7861 167.144C32.2128 167.517 32.7355 167.704 33.3541 167.704ZM44.7539 169L42.1459 165.272L38.8339 160.84H40.7219L43.1059 164.248L46.6419 169H44.7539ZM42.2579 164.248L44.6899 160.84H46.5139L43.0899 165.384L42.2579 164.248ZM42.9299 165.432L40.3059 169H38.4659L42.1299 164.264L42.9299 165.432ZM51.2612 169.16C50.4292 169.16 49.7039 169.016 49.0852 168.728C48.4772 168.44 48.0026 168.045 47.6612 167.544C47.3306 167.032 47.1652 166.456 47.1652 165.816C47.1652 165.24 47.2879 164.723 47.5332 164.264C47.7892 163.805 48.1359 163.443 48.5732 163.176C49.0212 162.899 49.5172 162.76 50.0612 162.76L50.1732 163.096C49.6292 163.096 49.1546 162.984 48.7492 162.76C48.3439 162.525 48.0239 162.205 47.7892 161.8C47.5652 161.384 47.4532 160.92 47.4532 160.408C47.4532 159.8 47.6132 159.267 47.9332 158.808C48.2532 158.339 48.6959 157.976 49.2612 157.72C49.8372 157.453 50.5092 157.32 51.2772 157.32C52.0346 157.32 52.6959 157.453 53.2612 157.72C53.8266 157.976 54.2692 158.339 54.5892 158.808C54.9092 159.267 55.0692 159.8 55.0692 160.408C55.0692 160.92 54.9519 161.379 54.7172 161.784C54.4932 162.189 54.1786 162.509 53.7732 162.744C53.3679 162.979 52.8879 163.096 52.3332 163.096L52.4612 162.76C53.0159 162.76 53.5119 162.899 53.9492 163.176C54.3866 163.443 54.7279 163.805 54.9732 164.264C55.2292 164.723 55.3572 165.245 55.3572 165.832C55.3572 166.472 55.1866 167.043 54.8452 167.544C54.5146 168.045 54.0399 168.44 53.4212 168.728C52.8132 169.016 52.0932 169.16 51.2612 169.16ZM51.2612 167.768C51.9652 167.768 52.5199 167.581 52.9252 167.208C53.3412 166.824 53.5492 166.312 53.5492 165.672C53.5492 165.043 53.3412 164.547 52.9252 164.184C52.5199 163.821 51.9652 163.64 51.2612 163.64C50.5572 163.64 49.9972 163.821 49.5812 164.184C49.1759 164.547 48.9732 165.043 48.9732 165.672C48.9732 166.312 49.1759 166.824 49.5812 167.208C49.9972 167.581 50.5572 167.768 51.2612 167.768ZM51.2612 162.312C51.8799 162.312 52.3652 162.152 52.7172 161.832C53.0799 161.512 53.2612 161.08 53.2612 160.536C53.2612 159.981 53.0746 159.539 52.7012 159.208C52.3386 158.877 51.8586 158.712 51.2612 158.712C50.6532 158.712 50.1679 158.877 49.8052 159.208C49.4426 159.539 49.2612 159.981 49.2612 160.536C49.2612 161.08 49.4426 161.512 49.8052 161.832C50.1679 162.152 50.6532 162.312 51.2612 162.312ZM57.4827 169V159.896C57.4827 159.064 57.7174 158.429 58.1867 157.992C58.6561 157.544 59.3601 157.32 60.2987 157.32C60.5121 157.32 60.6881 157.331 60.8267 157.352C60.9654 157.373 61.0881 157.405 61.1947 157.448V158.728C61.1201 158.707 61.0187 158.685 60.8907 158.664C60.7734 158.643 60.6401 158.632 60.4907 158.632C60.0214 158.632 59.6801 158.749 59.4667 158.984C59.2534 159.208 59.1467 159.528 59.1467 159.944V169H57.4827ZM55.9147 162.168V160.84H61.0187V162.168H55.9147ZM62.2716 169V167.016H64.2396V169H62.2716ZM65.6796 169V167.016H67.6476V169H65.6796ZM69.1036 169V167.016H71.0716V169H69.1036ZM76.4538 169.16C75.6751 169.16 74.9818 168.979 74.3738 168.616C73.7658 168.243 73.2858 167.736 72.9338 167.096C72.5924 166.456 72.4218 165.725 72.4218 164.904C72.4218 164.083 72.5924 163.357 72.9338 162.728C73.2858 162.088 73.7658 161.587 74.3738 161.224C74.9818 160.861 75.6698 160.68 76.4378 160.68C77.0884 160.68 77.6698 160.803 78.1818 161.048C78.6938 161.293 79.1151 161.635 79.4458 162.072C79.7764 162.509 79.9898 163.027 80.0858 163.624H78.5178C78.4111 163.144 78.1764 162.76 77.8138 162.472C77.4618 162.184 77.0138 162.04 76.4698 162.04C76.0004 162.04 75.5898 162.157 75.2378 162.392C74.8858 162.627 74.6138 162.957 74.4218 163.384C74.2298 163.811 74.1338 164.317 74.1338 164.904C74.1338 165.48 74.2298 165.987 74.4218 166.424C74.6138 166.861 74.8858 167.203 75.2378 167.448C75.5898 167.683 76.0058 167.8 76.4858 167.8C77.0084 167.8 77.4511 167.661 77.8138 167.384C78.1871 167.096 78.4271 166.712 78.5338 166.232H80.1018C79.9951 166.819 79.7711 167.331 79.4298 167.768C79.0991 168.205 78.6778 168.547 78.1658 168.792C77.6538 169.037 77.0831 169.16 76.4538 169.16ZM80.8213 169V167.608C81.9413 166.691 82.8746 165.891 83.6213 165.208C84.3786 164.525 84.9813 163.917 85.4293 163.384C85.8773 162.851 86.1973 162.365 86.3893 161.928C86.5813 161.491 86.6773 161.053 86.6773 160.616C86.6773 160.019 86.5013 159.555 86.1493 159.224C85.8079 158.883 85.3333 158.712 84.7253 158.712C84.0959 158.712 83.5839 158.899 83.1893 159.272C82.7946 159.635 82.5493 160.152 82.4533 160.824H80.7253C80.8319 159.768 81.2426 158.92 81.9573 158.28C82.6826 157.64 83.6373 157.32 84.8213 157.32C85.9519 157.32 86.8426 157.619 87.4933 158.216C88.1546 158.813 88.4853 159.635 88.4853 160.68C88.4853 161.213 88.3839 161.747 88.1813 162.28C87.9893 162.803 87.6693 163.352 87.2213 163.928C86.7733 164.493 86.1706 165.123 85.4133 165.816C84.6666 166.499 83.7386 167.277 82.6293 168.152L82.2293 167.608H88.6933V169H80.8213ZM94.9778 169C94.9244 168.797 94.8871 168.573 94.8658 168.328C94.8551 168.083 94.8498 167.784 94.8498 167.432H94.7698V163.544C94.7698 163.021 94.6364 162.632 94.3698 162.376C94.1138 162.109 93.7031 161.976 93.1378 161.976C92.5938 161.976 92.1564 162.083 91.8258 162.296C91.5058 162.509 91.3191 162.813 91.2658 163.208H89.6818C89.7564 162.44 90.1031 161.827 90.7218 161.368C91.3404 160.909 92.1671 160.68 93.2018 160.68C94.2684 160.68 95.0684 160.931 95.6018 161.432C96.1351 161.923 96.4018 162.648 96.4018 163.608V167.432C96.4018 167.677 96.4178 167.928 96.4498 168.184C96.4818 168.44 96.5298 168.712 96.5938 169H94.9778ZM92.1618 169.16C91.3298 169.16 90.6684 168.957 90.1778 168.552C89.6871 168.136 89.4418 167.576 89.4418 166.872C89.4418 166.147 89.6978 165.576 90.2098 165.16C90.7324 164.733 91.4791 164.445 92.4498 164.296L95.1378 163.864V165.032L92.7058 165.416C92.1618 165.501 91.7511 165.645 91.4738 165.848C91.2071 166.051 91.0738 166.344 91.0738 166.728C91.0738 167.101 91.1964 167.384 91.4418 167.576C91.6978 167.757 92.0658 167.848 92.5458 167.848C93.1858 167.848 93.7138 167.693 94.1298 167.384C94.5564 167.075 94.7698 166.685 94.7698 166.216L94.9778 167.4C94.7858 167.965 94.4444 168.403 93.9538 168.712C93.4631 169.011 92.8658 169.16 92.1618 169.16ZM104.564 169.16C103.786 169.16 103.092 168.979 102.484 168.616C101.876 168.243 101.396 167.736 101.044 167.096C100.703 166.456 100.532 165.725 100.532 164.904C100.532 164.083 100.703 163.357 101.044 162.728C101.396 162.088 101.876 161.587 102.484 161.224C103.092 160.861 103.78 160.68 104.548 160.68C105.199 160.68 105.78 160.803 106.292 161.048C106.804 161.293 107.226 161.635 107.556 162.072C107.887 162.509 108.1 163.027 108.196 163.624H106.628C106.522 163.144 106.287 162.76 105.924 162.472C105.572 162.184 105.124 162.04 104.58 162.04C104.111 162.04 103.7 162.157 103.348 162.392C102.996 162.627 102.724 162.957 102.532 163.384C102.34 163.811 102.244 164.317 102.244 164.904C102.244 165.48 102.34 165.987 102.532 166.424C102.724 166.861 102.996 167.203 103.348 167.448C103.7 167.683 104.116 167.8 104.596 167.8C105.119 167.8 105.562 167.661 105.924 167.384C106.298 167.096 106.538 166.712 106.644 166.232H108.212C108.106 166.819 107.882 167.331 107.54 167.768C107.21 168.205 106.788 168.547 106.276 168.792C105.764 169.037 105.194 169.16 104.564 169.16ZM113.061 169.16C112.229 169.16 111.498 168.979 110.869 168.616C110.239 168.243 109.749 167.736 109.397 167.096C109.045 166.445 108.869 165.709 108.869 164.888C108.869 164.056 109.045 163.325 109.397 162.696C109.759 162.067 110.25 161.576 110.869 161.224C111.498 160.861 112.229 160.68 113.061 160.68C113.903 160.68 114.639 160.861 115.269 161.224C115.898 161.576 116.383 162.067 116.725 162.696C117.077 163.325 117.253 164.056 117.253 164.888C117.253 165.709 117.077 166.445 116.725 167.096C116.383 167.736 115.898 168.243 115.269 168.616C114.639 168.979 113.903 169.16 113.061 169.16ZM113.061 167.8C113.562 167.8 113.994 167.677 114.357 167.432C114.73 167.187 115.023 166.845 115.237 166.408C115.45 165.971 115.557 165.459 115.557 164.872C115.557 163.997 115.322 163.309 114.853 162.808C114.394 162.296 113.797 162.04 113.061 162.04C112.335 162.04 111.738 162.296 111.269 162.808C110.81 163.32 110.581 164.008 110.581 164.872C110.581 165.459 110.682 165.971 110.885 166.408C111.098 166.845 111.391 167.187 111.765 167.432C112.149 167.677 112.581 167.8 113.061 167.8ZM118.642 169V160.84H120.226V162.76H120.306V169H118.642ZM124.434 169V163.752C124.434 163.187 124.29 162.765 124.002 162.488C123.724 162.211 123.308 162.072 122.754 162.072C122.274 162.072 121.847 162.179 121.474 162.392C121.111 162.605 120.823 162.899 120.61 163.272C120.407 163.645 120.306 164.088 120.306 164.6L120.098 162.648C120.364 162.04 120.775 161.56 121.33 161.208C121.884 160.856 122.53 160.68 123.266 160.68C124.14 160.68 124.828 160.925 125.33 161.416C125.831 161.907 126.082 162.557 126.082 163.368V169H124.434ZM128.431 169V159.896C128.431 159.064 128.666 158.429 129.135 157.992C129.604 157.544 130.308 157.32 131.247 157.32C131.46 157.32 131.636 157.331 131.775 157.352C131.914 157.373 132.036 157.405 132.143 157.448V158.776C132.068 158.755 131.967 158.733 131.839 158.712C131.722 158.691 131.588 158.68 131.439 158.68C130.97 158.68 130.628 158.797 130.415 159.032C130.202 159.256 130.095 159.576 130.095 159.992V169H128.431ZM133.631 169V160.84H135.279V169H133.631ZM126.863 162.232V160.84H134.303V162.232H126.863ZM133.567 159.304V157.48H135.343V159.304H133.567ZM137.096 169V160.84H138.68V162.872H138.76V169H137.096ZM138.76 164.744L138.552 162.808C138.744 162.115 139.074 161.587 139.544 161.224C140.013 160.861 140.573 160.68 141.224 160.68C141.469 160.68 141.64 160.701 141.736 160.744V162.312C141.682 162.291 141.608 162.28 141.512 162.28C141.416 162.269 141.298 162.264 141.16 162.264C140.36 162.264 139.757 162.472 139.352 162.888C138.957 163.304 138.76 163.923 138.76 164.744ZM142.9 169V160.84H144.484V162.76H144.564V169H142.9ZM148.404 169V163.672C148.404 163.117 148.276 162.712 148.02 162.456C147.764 162.2 147.396 162.072 146.916 162.072C146.468 162.072 146.063 162.179 145.7 162.392C145.348 162.595 145.071 162.883 144.868 163.256C144.666 163.619 144.564 164.051 144.564 164.552L144.356 162.648C144.623 162.04 145.023 161.56 145.556 161.208C146.1 160.856 146.708 160.68 147.38 160.68C148.191 160.68 148.836 160.915 149.316 161.384C149.807 161.853 150.052 162.472 150.052 163.24V169H148.404ZM153.908 169V163.672C153.908 163.117 153.775 162.712 153.508 162.456C153.252 162.2 152.884 162.072 152.404 162.072C151.967 162.072 151.567 162.179 151.204 162.392C150.852 162.595 150.57 162.883 150.356 163.256C150.154 163.619 150.052 164.051 150.052 164.552L149.716 162.648C149.994 162.04 150.41 161.56 150.964 161.208C151.53 160.856 152.159 160.68 152.852 160.68C153.674 160.68 154.33 160.92 154.82 161.4C155.311 161.869 155.556 162.499 155.556 163.288V169H153.908ZM160.991 169.16C160.17 169.16 159.444 168.979 158.815 168.616C158.196 168.253 157.711 167.752 157.359 167.112C157.007 166.472 156.831 165.736 156.831 164.904C156.831 164.061 157.002 163.325 157.343 162.696C157.695 162.056 158.186 161.56 158.815 161.208C159.444 160.856 160.164 160.68 160.975 160.68C161.764 160.68 162.447 160.851 163.023 161.192C163.61 161.523 164.058 161.987 164.367 162.584C164.687 163.181 164.847 163.891 164.847 164.712C164.847 164.84 164.842 164.963 164.831 165.08C164.831 165.187 164.82 165.299 164.799 165.416H157.951V164.168H163.631L163.215 164.664C163.215 163.789 163.018 163.123 162.623 162.664C162.228 162.205 161.679 161.976 160.975 161.976C160.218 161.976 159.615 162.237 159.167 162.76C158.73 163.272 158.511 163.987 158.511 164.904C158.511 165.832 158.73 166.557 159.167 167.08C159.615 167.603 160.234 167.864 161.023 167.864C161.503 167.864 161.919 167.768 162.271 167.576C162.623 167.373 162.884 167.08 163.055 166.696H164.623C164.356 167.464 163.903 168.067 163.263 168.504C162.634 168.941 161.876 169.16 160.991 169.16ZM172.164 169V167.128L172.324 167.176C172.153 167.784 171.801 168.269 171.268 168.632C170.735 168.984 170.095 169.16 169.348 169.16C168.612 169.16 167.967 168.984 167.412 168.632C166.868 168.28 166.441 167.789 166.132 167.16C165.833 166.531 165.684 165.795 165.684 164.952C165.684 164.099 165.839 163.352 166.148 162.712C166.457 162.072 166.889 161.576 167.444 161.224C167.999 160.872 168.649 160.696 169.396 160.696C170.175 160.696 170.815 160.883 171.316 161.256C171.828 161.619 172.164 162.131 172.324 162.792L172.1 162.824V157.48H173.748V169H172.164ZM169.764 167.768C170.5 167.768 171.081 167.517 171.508 167.016C171.935 166.504 172.148 165.8 172.148 164.904C172.148 164.029 171.929 163.341 171.492 162.84C171.065 162.328 170.484 162.072 169.748 162.072C169.023 162.072 168.447 162.328 168.02 162.84C167.604 163.341 167.396 164.045 167.396 164.952C167.396 165.837 167.604 166.531 168.02 167.032C168.447 167.523 169.028 167.768 169.764 167.768Z" fill="black"/>
</svg>
