<svg width="68" height="68" viewBox="0 0 68 68" fill="none" xmlns="http://www.w3.org/2000/svg">
<path fill-rule="evenodd" clip-rule="evenodd" d="M33.9999 0C52.7776 0 68 15.2223 68 33.9999C68 52.7776 52.7776 68 33.9999 68C15.2223 68 0 52.7776 0 33.9999C0 15.2223 15.2223 0 33.9999 0Z" fill="#222C3B"/>
<mask id="mask0_4132_303" style="mask-type:luminance" maskUnits="userSpaceOnUse" x="34" y="22" width="25" height="24">
<path d="M58.3882 34.5895C58.0882 40.8495 52.9082 45.8295 46.5882 45.8295C40.2682 45.8295 34.7682 40.5295 34.7682 34.0095C34.7682 27.4895 40.0482 22.1895 46.5882 22.1895C53.1282 22.1895 57.7682 26.8495 58.3482 32.8295H52.9882C52.4282 29.8095 49.7882 27.5095 46.5882 27.5095C43.3882 27.5095 40.0882 30.4295 40.0882 34.0095C40.0882 37.5895 43.0082 40.5095 46.5882 40.5095C50.1682 40.5095 51.7082 38.7895 52.6482 36.3695H43.6282V34.5895H58.3882Z" fill="white"/>
</mask>
<g mask="url(#mask0_4132_303)">
<path d="M23.1679 20.1895H44.8079C52.3479 20.1895 58.4679 26.3095 58.4679 33.8495C58.4679 41.3895 52.3479 47.5095 44.8079 47.5095H23.1679C15.6279 47.4895 9.50793 41.3895 9.50793 33.8495C9.50793 26.3095 15.6279 20.1895 23.1679 20.1895Z" fill="url(#paint0_linear_4132_303)"/>
</g>
<mask id="mask1_4132_303" style="mask-type:luminance" maskUnits="userSpaceOnUse" x="9" y="22" width="25" height="24">
<path d="M13.4868 42.7293C18.1268 46.9293 25.3068 46.7893 29.7668 42.3293C34.3868 37.7093 34.3868 30.2293 29.7668 25.6093C25.1468 20.9893 17.6668 20.9893 13.0468 25.6093C8.70676 29.9493 8.44676 36.8093 12.2468 41.4493L16.0468 37.6493C14.3068 35.1093 14.5468 31.6293 16.8068 29.3693C19.3468 26.8293 23.4668 26.8293 26.0068 29.3693C28.5468 31.9093 28.5468 36.0293 26.0068 38.5693C24.0668 40.5093 21.1868 40.9693 18.8068 39.9293L25.1868 33.5493L23.9268 32.2893L13.4868 42.7293Z" fill="white"/>
</mask>
<g mask="url(#mask1_4132_303)">
<mask id="mask2_4132_303" style="mask-type:luminance" maskUnits="userSpaceOnUse" x="9" y="20" width="50" height="28">
<path d="M23.1672 20.1895H44.8072C52.3472 20.1895 58.4672 26.3095 58.4672 33.8495C58.4672 41.3895 52.3472 47.5095 44.8072 47.5095H23.1672C15.6272 47.4895 9.50716 41.3895 9.50716 33.8495C9.50716 26.3095 15.6272 20.1895 23.1672 20.1895Z" fill="white"/>
</mask>
<g mask="url(#mask2_4132_303)">
<path d="M23.1672 20.1895H44.8072C52.3472 20.1895 58.4672 26.3095 58.4672 33.8495C58.4672 41.3895 52.3472 47.5095 44.8072 47.5095H23.1672C15.6272 47.4895 9.50716 41.3895 9.50716 33.8495C9.50716 26.3095 15.6272 20.1895 23.1672 20.1895Z" fill="url(#paint1_linear_4132_303)"/>
</g>
</g>
<circle cx="47" cy="34" r="6.5" fill="url(#paint2_linear_4132_303)" stroke="#222C3C"/>
<path d="M49.3469 36.7549H48.0491V32.8463H47.2452V32.3334H48.0491V30.7064H49.3469V32.3334H50.6867V32.8463H49.3469V36.7549Z" fill="#222C3C"/>
<path d="M46.9486 35.342C46.9486 35.536 46.9205 35.7083 46.8644 35.8588C46.8082 36.0094 46.7316 36.1408 46.6347 36.2531C46.5377 36.3629 46.4228 36.456 46.2901 36.5326C46.1574 36.6066 46.0145 36.6666 45.8614 36.7125C45.7108 36.7585 45.5526 36.7916 45.3867 36.812C45.2208 36.8325 45.0562 36.8427 44.8929 36.8427C44.6734 36.8427 44.4794 36.8286 44.311 36.8006C44.1426 36.7725 43.9818 36.7278 43.8287 36.6666C43.6755 36.6028 43.5224 36.5211 43.3693 36.4216C43.2187 36.322 43.0503 36.2008 42.864 36.0579L43.6181 35.4416C43.687 35.5717 43.7776 35.6904 43.8899 35.7976C44.0047 35.9022 44.1234 35.9928 44.2459 36.0694C44.3684 36.146 44.4871 36.2047 44.6019 36.2455C44.7168 36.2863 44.8099 36.3067 44.8814 36.3067C44.9401 36.3067 45.0064 36.3055 45.0805 36.3029C45.1545 36.2978 45.2297 36.2901 45.3063 36.2799C45.3829 36.2672 45.4582 36.2493 45.5322 36.2263C45.6062 36.2034 45.6713 36.1727 45.7274 36.1345C45.7861 36.0936 45.832 36.0439 45.8652 35.9852C45.9009 35.9239 45.9188 35.8512 45.9188 35.767C45.9188 35.6802 45.8958 35.6049 45.8499 35.5411C45.8065 35.4748 45.7491 35.4173 45.6776 35.3688C45.6062 35.3204 45.5245 35.2795 45.4326 35.2463C45.3408 35.2132 45.2476 35.1838 45.1532 35.1583C45.0613 35.1328 44.972 35.1111 44.8852 35.0932C44.7984 35.0728 44.7232 35.0537 44.6594 35.0358C44.542 35.0026 44.4182 34.9694 44.288 34.9363C44.1579 34.9005 44.029 34.861 43.9014 34.8176C43.7738 34.7717 43.6513 34.7181 43.5339 34.6568C43.419 34.5956 43.317 34.5228 43.2276 34.4386C43.1409 34.3518 43.0707 34.251 43.0171 34.1362C42.9661 34.0188 42.9405 33.8823 42.9405 33.7266C42.9405 33.4407 42.9967 33.2021 43.109 33.0107C43.2238 32.8168 43.3744 32.6624 43.5607 32.5475C43.747 32.4301 43.9588 32.3472 44.1962 32.2987C44.4335 32.2502 44.6747 32.226 44.9197 32.226C45.0881 32.226 45.2655 32.2438 45.4518 32.2795C45.6381 32.3127 45.8193 32.3638 45.9954 32.4327C46.1715 32.499 46.3361 32.5807 46.4892 32.6777C46.6423 32.7747 46.7699 32.8857 46.872 33.0107L46.1179 33.6309C46.0617 33.4777 45.9877 33.3463 45.8958 33.2366C45.8065 33.1268 45.7083 33.0375 45.6011 32.9686C45.4964 32.8972 45.388 32.8448 45.2757 32.8117C45.1659 32.7785 45.0639 32.7619 44.9694 32.7619C44.8776 32.7619 44.7742 32.7657 44.6594 32.7734C44.5445 32.781 44.4361 32.8027 44.334 32.8385C44.2344 32.8742 44.1489 32.9291 44.0775 33.0031C44.0086 33.0745 43.9741 33.1741 43.9741 33.3017C43.9741 33.3935 43.9945 33.4726 44.0354 33.539C44.0788 33.6028 44.1349 33.6589 44.2038 33.7074C44.2727 33.7534 44.3506 33.7929 44.4373 33.8261C44.5267 33.8567 44.6172 33.8848 44.7091 33.9103C44.801 33.9333 44.8903 33.9537 44.9771 33.9716C45.0639 33.9894 45.1417 34.0086 45.2106 34.029C45.328 34.0622 45.4518 34.0966 45.5819 34.1324C45.7146 34.1655 45.8448 34.2051 45.9724 34.251C46.1 34.2944 46.2225 34.3467 46.3399 34.408C46.4599 34.4667 46.5645 34.5394 46.6538 34.6262C46.7431 34.713 46.8146 34.815 46.8682 34.9324C46.9218 35.0473 46.9486 35.1838 46.9486 35.342Z" fill="#222C3C"/>
<defs>
<linearGradient id="paint0_linear_4132_303" x1="57.8279" y1="27.5495" x2="8.74793" y2="40.5095" gradientUnits="userSpaceOnUse">
<stop stop-color="#FFDB3B"/>
<stop offset="0.2" stop-color="#FF6270"/>
<stop offset="0.4" stop-color="#FF1CE6"/>
<stop offset="0.6" stop-color="#B14EFF"/>
<stop offset="0.8" stop-color="#3BADFF"/>
<stop offset="1" stop-color="#6BE5FF"/>
</linearGradient>
<linearGradient id="paint1_linear_4132_303" x1="57.8272" y1="27.5495" x2="8.74716" y2="40.5095" gradientUnits="userSpaceOnUse">
<stop stop-color="#FFDB3B"/>
<stop offset="0.2" stop-color="#FF6270"/>
<stop offset="0.4" stop-color="#FF1CE6"/>
<stop offset="0.6" stop-color="#B14EFF"/>
<stop offset="0.8" stop-color="#3BADFF"/>
<stop offset="1" stop-color="#6BE5FF"/>
</linearGradient>
<linearGradient id="paint2_linear_4132_303" x1="41" y1="29" x2="53.5" y2="34.5" gradientUnits="userSpaceOnUse">
<stop stop-color="#FF2CCC"/>
<stop offset="1" stop-color="#FFCD29"/>
</linearGradient>
</defs>
</svg>
