<svg width="68" height="68" viewBox="0 0 68 68" fill="none" xmlns="http://www.w3.org/2000/svg">
<path d="M66.9893 42.2059C62.4524 60.409 44.0157 71.5246 25.7791 66.9849C7.57586 62.4341 -3.52177 43.9973 1.01514 25.7941C5.55205 7.59094 23.9777 -3.52456 42.1698 1.01511C60.4175 5.49914 71.5151 23.9916 66.9893 42.2059Z" fill="#2775CA"/>
<path d="M14.2067 26.494C10.0981 37.4025 15.7649 49.7275 26.8149 53.694C27.2399 53.9775 27.6649 54.544 27.6649 54.969V56.9525C27.6649 57.2358 27.6649 57.3775 27.5231 57.519C27.3817 58.0858 26.8149 58.369 26.2481 58.0858C18.3149 55.5358 12.2231 49.444 9.67309 41.5108C5.42309 28.0525 12.7899 13.744 26.2481 9.49398C26.3899 9.35254 26.6731 9.35254 26.8149 9.35254C27.3817 9.49398 27.6649 9.91898 27.6649 10.4858V12.469C27.6649 13.1775 27.3817 13.6025 26.8149 13.8858C21.0067 16.0108 16.3317 20.544 14.2067 26.494Z" fill="white"/>
<path d="M40.5567 10.0608C40.6981 9.49398 41.2649 9.21076 41.8317 9.49398C49.6231 12.044 55.8567 18.1358 58.4067 26.2108C62.6567 39.669 55.2899 53.9775 41.8317 58.2275C41.6899 58.369 41.4067 58.369 41.2649 58.369C40.6981 58.2275 40.4149 57.8025 40.4149 57.2358V55.2525C40.4149 54.544 40.6981 54.119 41.2649 53.8358C47.0731 51.7108 51.7481 47.1775 53.8731 41.2275C57.9817 30.319 52.3149 17.994 41.2649 14.0275C40.8399 13.744 40.4149 13.1775 40.4149 12.6108V10.6275C40.4149 10.344 40.4149 10.2025 40.5567 10.0608Z" fill="white"/>
<path d="M34.4648 31.4526C40.4148 32.1608 43.3898 33.8608 43.3898 38.8191C43.3898 42.6441 40.5565 45.6191 36.3065 46.3276V49.7276C36.1648 50.4358 35.7398 50.8608 35.173 50.8608H33.048C32.3398 50.7191 31.9148 50.2941 31.9148 49.7276V46.3276C27.2398 45.6191 24.973 43.0691 24.4065 39.5276V39.3858C24.4065 38.8191 24.8315 38.3941 25.398 38.3941H27.8065C28.2315 38.3941 28.6565 38.6776 28.798 39.2441C29.223 41.3691 30.498 42.9276 34.1815 42.9276C36.873 42.9276 38.8565 41.3694 38.8565 39.1026C38.8565 36.8358 37.5815 35.9859 33.6148 35.2776C27.6648 34.5691 24.8315 32.7276 24.8315 28.0526C24.8315 24.5108 27.523 21.6776 31.773 21.1108V17.8526C31.9148 17.1441 32.3398 16.7191 32.9065 16.7191H35.0315C35.7398 16.8608 36.1648 17.2858 36.1648 17.8526V21.2526C39.423 21.5358 41.973 23.9441 42.5398 27.0608V27.2026C42.5398 27.7691 42.1148 28.1941 41.548 28.1941H39.2815C38.8565 28.1941 38.4315 27.9108 38.2898 27.4858C37.5815 25.3608 36.1648 24.5108 33.6148 24.5108C30.7815 24.5108 29.3648 25.7855 29.3648 27.7691C29.3648 29.7526 30.2148 30.8858 34.4648 31.4526Z" fill="white"/>
</svg>
